<svg width="23" height="31" viewBox="0 0 23 31" fill="none" xmlns="http://www.w3.org/2000/svg">
<path fill-rule="evenodd" clip-rule="evenodd" d="M16.9907 0C18.0842 1.00657 18.4402 2.61196 17.7545 3.84143C17.5544 4.20006 17.0393 5.12339 16.4672 6.14851C15.1507 8.50781 15.4282 8.01402 14.1208 10.3788L9.69491 18.3841L8.88225 19.854L8.88506 19.8558C8.82537 19.9625 6.89041 23.4358 6.83717 23.5455C6.24714 24.7615 6.10303 26.1383 7.46809 27.1614L6.13286 29.5765C5.03931 28.5699 4.68332 26.9646 5.36906 25.7351C5.8571 24.86 8.22112 20.6233 8.7105 19.7486L9.52302 18.279L13.9381 10.2933C15.1694 8.06609 15.1308 8.21259 16.2864 6.03105C16.9304 4.81504 17.0205 3.43822 15.6554 2.41507L16.9907 0Z" fill="white"/>
<path fill-rule="evenodd" clip-rule="evenodd" d="M9.85979 0.362671L10.0339 0.470659C9.33045 1.71127 9.63042 3.03297 10.9933 3.94628L10.7131 3.77203L17.0018 7.66476C18.5007 8.59255 19.073 10.5089 18.2778 11.9158C17.785 12.7879 16.279 15.4548 15.7848 16.3265L15.6107 16.2185C15.8499 15.7966 16.9884 13.9011 17.1606 13.0979C17.3709 12.1165 17.1589 11.1239 16.0033 10.3495L9.99323 6.63012C8.49433 5.70249 7.92179 3.78579 8.71725 2.37909L8.98661 1.90273L8.98678 1.90239C9.27724 1.38873 9.56856 0.876338 9.85979 0.362671Z" fill="white"/>
<path fill-rule="evenodd" clip-rule="evenodd" d="M7.71427 4.15857L7.88839 4.26653C7.18496 5.50717 7.4849 6.82884 8.84774 7.74215L8.56763 7.5679L14.8563 11.4606C16.3551 12.3884 16.9275 14.3048 16.1323 15.7117C15.6395 16.5837 15.1488 17.4526 14.6546 18.3242L14.4804 18.2163C15.2375 16.881 15.547 15.2775 13.8578 14.1454L7.84774 10.426C6.34881 9.49837 5.77629 7.58169 6.57172 6.17499L6.84111 5.6986L6.84128 5.69829C7.13175 5.1846 7.42304 4.67221 7.71427 4.15857Z" fill="white"/>
<path fill-rule="evenodd" clip-rule="evenodd" d="M5.56873 7.9541L5.74282 8.06207C5.03939 9.3027 5.33936 10.6244 6.70221 11.5377L6.42207 11.3635L16.6615 17.7648C18.1565 18.6994 18.7326 20.6089 17.9375 22.0158C17.4447 22.8879 15.0573 27.1102 14.5631 27.9819L14.389 27.8739C14.4493 27.7676 16.4034 24.3061 16.4572 24.1967C17.0794 22.9328 17.2177 21.4915 15.663 20.4496L5.70217 14.2215C4.20727 13.2868 3.63072 11.3772 4.42618 9.97052L4.69554 9.49414L4.69571 9.49383C4.98618 8.98016 5.2775 8.46777 5.56873 7.9541Z" fill="white"/>
<path fill-rule="evenodd" clip-rule="evenodd" d="M18.892 8.80969L18.7971 8.97163C20.1102 9.80759 20.5764 11.0959 19.8716 12.4242L20.024 12.1631L18.19 15.3059C17.3873 16.6813 17.9112 18.5648 19.351 19.527L20.41 17.6599C20.4521 17.5462 20.5038 17.4307 20.566 17.3135L22.0148 14.8307H22.0148L22.2485 14.4303C23.0625 13.0353 22.5123 11.1173 21.0255 10.1686L20.5219 9.84738L20.5216 9.84715C19.9786 9.50074 19.4356 9.15579 18.892 8.80969Z" fill="white"/>
<path fill-rule="evenodd" clip-rule="evenodd" d="M2.25038 13.8212L2.42446 13.9291C1.72104 15.1698 2.021 16.4914 3.38385 17.4048L3.10371 17.2305L13.3432 23.6319C14.8381 24.5665 15.4143 26.476 14.6192 27.8829C14.1263 28.755 13.6356 29.6238 13.1414 30.4955L12.9673 30.3875C13.7244 29.0522 14.0339 27.4487 12.3447 26.3166L2.38382 20.0886C0.888891 19.1539 0.312371 17.2443 1.10783 15.8376L1.37719 15.3612L1.37736 15.3609C1.66783 14.8472 1.95911 14.3348 2.25038 13.8212Z" fill="white"/>
</svg>
