<svg width="16" height="17" viewBox="0 0 16 17" fill="none" xmlns="http://www.w3.org/2000/svg">
<path d="M4.49261 0.780396H10.999C13.4801 0.780396 15.4915 2.79175 15.4915 5.27288V11.7792C15.4915 14.2604 13.4801 16.2717 10.999 16.2717H4.49261C2.01148 16.2717 0.00012207 14.2604 0.00012207 11.7792V5.27288C0.00012207 2.79175 2.01148 0.780396 4.49261 0.780396ZM4.33769 2.32951C2.79768 2.32951 1.54926 3.57794 1.54926 5.11795V11.9341C1.54926 13.4741 2.79768 14.7226 4.33769 14.7226H11.1539C12.6939 14.7226 13.9423 13.4741 13.9423 11.9341V5.11795C13.9423 3.57794 12.6939 2.32951 11.1539 2.32951H4.33769ZM11.8123 3.49136C12.347 3.49136 12.7805 3.92485 12.7805 4.45957C12.7805 4.9943 12.347 5.42778 11.8123 5.42778C11.2775 5.42778 10.8441 4.9943 10.8441 4.45957C10.8441 3.92485 11.2775 3.49136 11.8123 3.49136ZM7.74579 4.65321C9.88468 4.65321 11.6186 6.38714 11.6186 8.52604C11.6186 10.6649 9.88468 12.3989 7.74579 12.3989C5.60688 12.3989 3.87295 10.6649 3.87295 8.52604C3.87295 6.38714 5.60688 4.65321 7.74579 4.65321ZM7.74579 6.20235C6.46241 6.20235 5.42209 7.24274 5.42209 8.52604C5.42209 9.80942 6.46241 10.8497 7.74579 10.8497C9.02917 10.8497 10.0695 9.80942 10.0695 8.52604C10.0695 7.24274 9.02917 6.20235 7.74579 6.20235Z" fill="white"/>
</svg>
