<svg width="170" height="43" viewBox="0 0 170 43" fill="none" xmlns="http://www.w3.org/2000/svg">
<path fill-rule="evenodd" clip-rule="evenodd" d="M13.2988 2.20891C13.6411 1.81622 13.8366 1.37443 13.9833 0.932653C14.0811 0.589046 14.2278 0.392696 14.4234 0.392696C14.5211 0.392696 14.6189 0.490869 14.7656 0.638129C14.8634 1.17808 14.9612 2.30707 15.1079 3.97602L15.5479 8.29567C15.5479 8.59019 15.4012 8.68836 15.1567 8.68836C15.0101 8.68836 14.8634 8.5411 14.7656 8.24658C14.0811 6.28311 13.1033 4.61415 11.832 3.28881C10.5119 1.96347 9.09405 1.32534 7.57837 1.32534C6.0627 1.32534 4.93817 1.86529 4.15588 2.99429C3.3736 4.12328 2.98246 5.30137 2.98246 6.52854C2.98246 8.05023 3.42249 9.22832 4.25367 10.0137C5.08484 10.7991 6.79609 11.7317 9.4363 12.7626C11.3431 13.4989 12.8099 14.1861 13.7389 14.8733C14.6678 15.5605 15.499 16.4932 16.1346 17.7694C16.7702 18.9966 17.1125 20.3219 17.1125 21.7454C17.1125 24.1507 16.2813 26.3105 14.6678 28.2249C13.0544 30.1393 11.0498 31.0719 8.7029 31.0719C6.55163 31.0719 4.44924 30.2374 2.29796 28.6176C1.85792 29.0594 1.61346 29.5502 1.46678 30.1393C1.369 30.6301 1.22232 30.8756 0.977854 30.8756C0.782284 30.8756 0.635605 30.5811 0.53782 29.9429C0.440035 29.3048 0.244464 26.3596 0 21.0582C0.0488927 20.8619 0.195571 20.7637 0.391142 20.7637C0.586713 20.7637 0.733391 20.911 0.831176 21.2546C2.73799 27.145 5.42709 30.0902 8.84958 30.0902C10.5608 30.0902 11.8809 29.4521 12.8588 28.2249C13.8366 26.9486 14.3256 25.5251 14.3256 23.9053C14.3256 22.7763 14.0811 21.7454 13.5433 20.8128C13.0055 19.8801 12.321 19.0947 11.4898 18.5057C10.6586 17.9167 9.28962 17.2785 7.43169 16.5422C5.08484 15.6096 3.47138 14.726 2.64021 13.8916C1.80903 13.0571 1.17343 12.1244 0.782284 11.0936C0.391142 10.0628 0.195571 9.03197 0.195571 8.05023C0.195571 6.03768 0.928962 4.22147 2.44464 2.65069C3.96031 1.07991 5.76934 0.294524 7.96951 0.294524C8.80069 0.294524 9.68076 0.441776 10.5608 0.785384C11.392 1.0799 12.321 1.57078 13.2988 2.20891ZM33.9804 0H34.9094C36.2784 3.48516 38.1852 9.42466 40.6299 17.8676C42.1944 23.2671 43.2701 26.605 43.8568 27.8322C44.4435 29.0594 45.3725 29.7466 46.6437 29.8938C47.0348 29.9429 47.2793 30.1393 47.2793 30.4338C47.2793 30.6792 47.1815 30.7774 46.937 30.7774H46.6926C45.568 30.6301 44.1012 30.532 42.3411 30.532C39.652 30.532 37.8919 30.5811 37.1096 30.6792C36.7184 30.6792 36.5229 30.532 36.5229 30.2374C36.5229 30.0411 36.6695 29.8938 36.9629 29.8448C38.0385 29.7466 38.7719 29.5012 39.1631 29.2066C39.5542 28.9121 39.7498 28.3722 39.7498 27.734C39.7498 27.0959 39.3586 25.427 38.6253 22.8254L37.5007 18.8984C36.8651 18.8984 33.9316 18.9475 28.7978 19.0457C27.4777 23.2671 26.8421 25.9178 26.8421 27.0468C26.8421 27.9795 27.1844 28.6667 27.82 29.1085C28.4556 29.5502 29.0912 29.7957 29.7268 29.8448C30.1668 29.8938 30.4113 30.0411 30.4113 30.3356C30.4113 30.4829 30.3135 30.5811 30.1668 30.6792C28.1622 30.5811 26.9888 30.532 26.5488 30.532C24.4464 30.532 23.0285 30.5811 22.344 30.6301C21.9528 30.6301 21.7573 30.4829 21.7573 30.1884C21.7573 29.9429 21.9528 29.7957 22.2951 29.6975C23.713 29.4521 24.8375 28.274 25.5709 26.1632C26.3532 24.0034 27.5266 20.1747 29.1401 14.5788C30.6068 9.52283 32.2203 4.66324 33.9804 0ZM33.1982 5.00685C32.0247 7.90297 30.7046 12.0753 29.1401 17.6222C30.4113 17.524 31.3402 17.524 31.927 17.524L37.1585 17.6222C36.7184 16.0514 36.0339 13.9406 35.2028 11.339C34.2249 8.1484 33.5404 6.03767 33.1982 5.00685ZM58.0357 0.736309C58.7691 1.96348 60.0892 3.87785 61.8982 6.47945L67.8631 14.9715L73.6324 23.1199C73.7791 20.371 73.828 16.7877 73.828 12.3699C73.828 9.08105 73.7791 6.87215 73.6813 5.74315C73.5836 4.61415 73.1435 3.68151 72.4101 2.94521C71.6767 2.20891 70.7967 1.81621 69.721 1.81621C69.2321 1.81621 68.9876 1.66895 68.9876 1.42352C68.9876 1.27626 69.0365 1.17808 69.1343 1.07991C69.2321 1.03082 70.0633 0.93265 71.6278 0.883563C73.1924 0.834476 74.5125 0.785384 75.5882 0.785384H78.0817H78.4728C78.864 0.785384 79.0595 0.932653 79.0595 1.17809C79.0595 1.42352 78.9129 1.57078 78.5706 1.61986C77.2994 1.76713 76.4193 2.2089 75.8815 2.79794C75.3437 3.43607 75.0014 4.31964 74.9037 5.54681C74.8059 6.72489 74.757 10.75 74.757 17.524L74.5614 29.5993C74.5614 30.1884 74.4636 30.532 74.1703 30.532C74.1214 30.532 74.0236 30.4829 73.9258 30.4338C73.828 30.3847 73.2413 29.5993 72.2634 28.1267C71.2367 26.6541 70.0144 24.887 68.5476 22.8254C67.0808 20.7637 65.9074 19.0948 65.0762 17.8185C63.2183 15.0696 62.0449 13.3516 61.5559 12.7135C59.7469 10.3573 58.6713 8.8847 58.3779 8.19749C58.1823 7.75571 57.9868 7.51028 57.7912 7.51028C57.6445 7.51028 57.5956 7.80479 57.5956 8.39383L57.6445 11.9281C57.6445 16.4441 57.7423 20.0274 57.9379 22.7272C58.1335 25.4269 58.329 26.9977 58.5735 27.4395C58.7691 27.8813 59.1602 28.3722 59.698 28.863C60.2358 29.3539 60.8226 29.5502 61.4093 29.5502C62.2404 29.5502 62.6316 29.7466 62.6316 30.0902C62.6316 30.3847 62.3871 30.4829 61.9471 30.4829H52.9997C52.5597 30.4829 52.3641 30.3356 52.3641 30.0902C52.3641 29.7957 52.5597 29.6484 52.9997 29.6484C54.5154 29.6484 55.5421 29.2557 56.08 28.4212C56.5689 27.5868 56.8622 25.8196 56.8622 23.1199L56.7156 15.0696C56.6667 10.3573 56.5689 7.55936 56.3733 6.72489C56.1777 5.89041 55.6888 4.85959 54.9554 3.63243C54.222 2.40526 53.3909 1.71804 52.4619 1.57077C52.0219 1.52169 51.8263 1.37443 51.8263 1.129C51.8263 0.834476 52.1196 0.687219 52.6575 0.687219L58.0357 0.736309ZM91.9672 0.58904L95.8297 0.490868C100.67 0.490868 104.386 1.96347 106.831 4.8105C109.324 7.70662 110.546 11.339 110.546 15.7568C110.546 18.8984 109.96 21.5982 108.737 23.9053C107.564 26.2123 106.048 27.9795 104.239 29.1085C102.43 30.2865 100.083 30.8756 97.0521 30.8756C96.3676 30.8756 95.5364 30.8265 94.5096 30.7283C92.6517 30.532 91.625 30.4338 91.4294 30.4338C87.3713 30.4338 84.9756 30.4829 84.2422 30.5811C83.851 30.5811 83.6066 30.4338 83.6066 30.1884C83.6066 30.0411 83.7043 29.8938 83.851 29.8448C83.9977 29.7957 84.4866 29.6975 85.22 29.5993C86.1979 29.4521 86.9313 28.9612 87.3224 28.1267C87.7135 27.2922 87.958 24.7888 88.1047 20.5674L88.398 8.44292C88.398 7.01941 88.3003 5.69407 88.1536 4.36873C88.0069 3.04338 87.7624 2.20891 87.4202 1.8653C87.0779 1.4726 86.589 1.22717 85.8556 1.07991C85.3178 0.981734 85.0733 0.834473 85.0733 0.58904C85.0733 0.294519 85.22 0.098172 85.4645 0.098172C85.7089 0.098172 86.4912 0.147263 87.7624 0.294524C89.0337 0.539957 90.4515 0.58904 91.9672 0.58904ZM91.2827 22.6781C91.2827 24.6906 91.3805 26.1633 91.625 26.9977C91.8205 27.8813 92.3095 28.5685 93.0429 29.1575C93.7762 29.6975 94.9008 29.992 96.4653 29.992C98.7144 29.992 100.572 29.3539 101.941 28.0285C103.359 26.7032 104.435 24.9852 105.217 22.7763C105.999 20.6164 106.391 18.3094 106.391 15.8059C106.391 12.1735 105.51 8.8847 103.701 5.93949C101.892 2.99429 99.1056 1.52169 95.2919 1.52169C93.5807 1.52169 92.6028 1.57078 92.3584 1.71804C92.065 1.8653 91.9183 2.258 91.9183 2.94521C91.9183 3.53425 91.8694 4.61416 91.7716 6.13585C91.625 8.34476 91.5761 10.1119 91.5272 11.339L91.3316 17.6222C91.3316 20.5674 91.2827 22.2363 91.2827 22.6781ZM127.854 14.9224C128.539 13.9897 129.615 12.2717 131.033 9.81736C132.45 7.36302 133.282 5.79223 133.526 5.20319C133.771 4.61415 133.917 4.12329 133.917 3.77968C133.917 3.14155 133.673 2.65068 133.135 2.30708C132.597 1.91438 132.108 1.76712 131.57 1.76712C131.13 1.76712 130.935 1.61986 130.935 1.37443C130.935 1.07991 131.277 0.932653 132.01 0.932653H139.051C139.687 0.932653 140.029 1.07991 140.029 1.42352C140.029 1.66895 139.882 1.81621 139.589 1.81621C138.855 1.81621 138.171 2.01256 137.486 2.45435C136.802 2.84704 135.971 3.77968 134.993 5.20319L131.766 10.6027C130.055 13.4007 129.126 15.0696 129.028 15.5605C128.832 16.2477 128.735 18.1621 128.735 21.2546C128.735 25.3288 128.881 27.7831 129.175 28.5194C129.468 29.3048 130.348 29.7466 131.913 29.8938C132.304 29.9429 132.499 30.0902 132.499 30.3356C132.499 30.6301 132.304 30.7774 131.864 30.7774L126.828 30.6301C125.605 30.6301 124.628 30.6792 123.845 30.7283C123.21 30.8265 122.819 30.8265 122.672 30.8265C122.183 30.8265 121.987 30.6792 121.987 30.3847C121.987 30.1393 122.183 29.992 122.525 29.992C123.699 29.9429 124.53 29.403 124.921 28.3231C125.312 27.2922 125.508 25.7706 125.508 23.7089C125.508 21.5 125.41 19.6838 125.165 18.3094C125.116 17.9658 124.579 16.6895 123.552 14.5788C122.525 12.419 121.303 10.0628 119.836 7.46119C118.369 4.85959 117.343 3.28882 116.707 2.69978C116.071 2.15983 115.485 1.81621 114.849 1.76712C114.409 1.71803 114.165 1.57077 114.165 1.32534C114.165 1.17808 114.213 1.03083 114.36 0.981743C114.458 0.932656 114.849 0.883563 115.387 0.883563H123.552C124.09 0.883563 124.432 0.883566 124.579 0.932653C124.676 0.98174 124.725 1.0799 124.725 1.27625C124.725 1.52169 124.579 1.66895 124.236 1.66895C122.672 1.81621 121.841 2.40526 121.841 3.38699C121.841 3.92695 122.134 4.71233 122.721 5.84133C123.21 6.97032 124.921 10.0137 127.854 14.9224ZM159.733 30.5811C158.51 30.7774 157.532 30.8756 156.848 30.8756C155.039 30.8756 153.23 30.2374 151.421 29.0103C149.612 27.7831 148.194 26.016 147.118 23.7089C146.043 21.4018 145.456 18.8493 145.456 15.9532C145.456 11.7317 146.678 8.05023 149.123 4.85959C151.567 1.66895 154.55 0.098172 158.07 0.098172C160.319 0.098172 162.373 0.78539 164.182 2.11073C165.991 3.43607 167.409 5.30137 168.435 7.65753C169.462 10.0137 170 12.419 170 14.9224C170 16.9349 169.609 18.9966 168.875 21.1073C168.142 23.218 167.164 24.9852 165.991 26.5069C164.817 27.9795 163.448 29.2557 161.884 30.3356C160.319 31.4155 158.51 32.4463 156.408 33.4281C154.843 34.1644 153.719 34.7534 153.083 35.097C153.572 35.048 154.012 35.048 154.257 35.048C155.186 35.048 155.968 35.1952 156.652 35.5879C157.337 35.9315 158.461 36.7169 160.075 37.895C162.079 39.4167 163.644 40.2021 164.671 40.2021C165.453 40.2021 166.089 40.0057 166.626 39.5639C167.164 39.1221 167.8 38.3859 168.533 37.2569C168.729 36.9623 168.924 36.8151 169.071 36.8151C169.316 36.8151 169.413 36.9623 169.413 37.2569C169.413 37.7968 168.729 38.9258 167.409 40.5457C166.089 42.1655 164.426 43 162.471 43C161.493 43 160.417 42.7055 159.292 42.1164C158.168 41.5274 156.555 40.3002 154.403 38.3858C153.181 37.3059 152.203 36.766 151.421 36.766C150.687 36.766 150.15 37.0605 149.807 37.6005C149.465 38.1404 149.27 39.0731 149.172 40.3002C149.123 41.1347 148.976 41.7728 148.781 42.1164C148.585 42.4601 148.243 42.6564 147.705 42.6564C147.363 42.6564 147.069 42.5091 146.776 42.2146C146.483 41.9201 146.336 41.5274 146.336 41.0365C146.336 40.3002 146.678 39.3676 147.363 38.3368C148.047 37.3059 148.927 36.3733 150.003 35.637C151.127 34.9007 152.888 33.968 155.332 32.79C157.581 31.7101 159.048 30.9737 159.733 30.5811ZM149.563 14.8242C149.563 17.3276 149.856 19.8311 150.443 22.2363C151.03 24.6416 151.959 26.5069 153.23 27.8322C154.501 29.1575 155.968 29.7957 157.63 29.7957C160.075 29.7957 162.031 28.4212 163.497 25.6233C165.013 22.8253 165.746 19.4384 165.746 15.4132C165.746 11.6336 165.013 8.29566 163.497 5.49772C162.031 2.69977 160.026 1.27625 157.532 1.27625C155.088 1.27625 153.132 2.65068 151.665 5.44863C150.296 8.19748 149.563 11.339 149.563 14.8242Z" fill="white"/>
</svg>
