<svg width="94" height="92" viewBox="0 0 94 92" fill="none" xmlns="http://www.w3.org/2000/svg">
<path fill-rule="evenodd" clip-rule="evenodd" d="M7.30662 69.6653C7.49465 69.4503 7.60211 69.2084 7.68269 68.9665C7.73642 68.7783 7.81701 68.6708 7.92446 68.6708C7.97818 68.6708 8.03191 68.7246 8.11249 68.8052C8.16622 69.1009 8.21994 69.719 8.30053 70.6328L8.54229 72.998C8.54229 73.1593 8.46171 73.213 8.32739 73.213C8.24681 73.213 8.16622 73.1324 8.11249 72.9711C7.73642 71.8961 7.19917 70.9822 6.50074 70.2566C5.77545 69.5309 4.99644 69.1815 4.1637 69.1815C3.33096 69.1815 2.71312 69.4771 2.28332 70.0953C1.85352 70.7135 1.63862 71.3585 1.63862 72.0305C1.63862 72.8636 1.88038 73.5087 2.33704 73.9387C2.79371 74.3688 3.7339 74.8794 5.18447 75.4438C6.23211 75.847 7.03799 76.2233 7.54838 76.5995C8.05877 76.9758 8.51543 77.4865 8.86465 78.1853C9.21386 78.8572 9.4019 79.5829 9.4019 80.3623C9.4019 81.6793 8.94523 82.8619 8.05877 83.9101C7.1723 84.9583 6.07094 85.4689 4.78154 85.4689C3.59958 85.4689 2.44449 85.012 1.26254 84.1251C1.02078 84.367 0.886465 84.6358 0.805877 84.9583C0.752152 85.2271 0.671564 85.3614 0.537251 85.3614C0.429801 85.3614 0.349213 85.2002 0.295488 84.8508C0.241763 84.5014 0.134313 82.8888 0 79.986C0.0268626 79.8785 0.10745 79.8248 0.2149 79.8248C0.322351 79.8248 0.402938 79.9054 0.456664 80.0935C1.5043 83.3188 2.98174 84.9314 4.86212 84.9314C5.80231 84.9314 6.5276 84.582 7.06485 83.9101C7.6021 83.2113 7.87073 82.4318 7.87073 81.5449C7.87073 80.9267 7.73642 80.3623 7.44093 79.8517C7.14544 79.341 6.76937 78.911 6.3127 78.5884C5.85604 78.2659 5.10389 77.9165 4.08311 77.5134C2.79371 77.0027 1.90724 76.5189 1.45058 76.062C0.993915 75.6051 0.644701 75.0944 0.429801 74.53C0.2149 73.9656 0.10745 73.4012 0.10745 72.8636C0.10745 71.7617 0.510389 70.7672 1.34313 69.9072C2.17587 69.0471 3.16978 68.6171 4.3786 68.6171C4.83526 68.6171 5.31879 68.6977 5.80231 68.8858C6.25898 69.0471 6.76937 69.3159 7.30662 69.6653ZM18.6695 68.4558H19.1799C19.932 70.3641 20.9797 73.6162 22.3228 78.239C23.1824 81.1955 23.7734 83.0231 24.0957 83.6951C24.4181 84.367 24.9285 84.7433 25.6269 84.8239C25.8418 84.8508 25.9761 84.9583 25.9761 85.1195C25.9761 85.2539 25.9224 85.3077 25.7881 85.3077H25.6537C25.0359 85.2271 24.23 85.1733 23.263 85.1733C21.7855 85.1733 20.8185 85.2002 20.3887 85.2539C20.1738 85.2539 20.0663 85.1733 20.0663 85.012C20.0663 84.9045 20.1469 84.8239 20.3081 84.797C20.8991 84.7433 21.302 84.6089 21.5169 84.4476C21.7318 84.2864 21.8393 83.9907 21.8393 83.6413C21.8393 83.2919 21.6244 82.3781 21.2214 80.9536L20.6036 78.8035C20.2544 78.8035 18.6426 78.8303 15.822 78.8841C15.0968 81.1955 14.7475 82.6469 14.7475 83.265C14.7475 83.7757 14.9356 84.152 15.2848 84.3939C15.634 84.6358 15.9832 84.7701 16.3324 84.797C16.5742 84.8239 16.7085 84.9045 16.7085 85.0658C16.7085 85.1464 16.6548 85.2002 16.5742 85.2539C15.4728 85.2002 14.8281 85.1733 14.5864 85.1733C13.4313 85.1733 12.6523 85.2002 12.2762 85.2271C12.0613 85.2271 11.9538 85.1464 11.9538 84.9852C11.9538 84.8508 12.0613 84.7701 12.2493 84.7164C13.0283 84.582 13.6462 83.937 14.0491 82.7812C14.4789 81.5987 15.1236 79.5023 16.0101 76.4383C16.816 73.6699 17.7024 71.0091 18.6695 68.4558ZM18.2397 71.1973C17.595 72.783 16.8697 75.0676 16.0101 78.1047C16.7085 78.0509 17.2189 78.0509 17.5413 78.0509L20.4155 78.1047C20.1738 77.2446 19.7977 76.0889 19.341 74.6644C18.8038 72.9174 18.4277 71.7617 18.2397 71.1973ZM31.8859 68.859C32.2888 69.5309 33.0141 70.5791 34.008 72.0036L37.2852 76.6533L40.455 81.1149C40.5356 79.6098 40.5625 77.6477 40.5625 75.2288C40.5625 73.4281 40.5356 72.2186 40.4819 71.6004C40.4282 70.9822 40.1864 70.4716 39.7835 70.0684C39.3805 69.6653 38.897 69.4503 38.306 69.4503C38.0374 69.4503 37.9031 69.3696 37.9031 69.2352C37.9031 69.1546 37.9299 69.1009 37.9837 69.0471C38.0374 69.0202 38.494 68.9665 39.3537 68.9396C40.2133 68.9127 40.9385 68.8858 41.5295 68.8858H42.8995H43.1144C43.3293 68.8858 43.4368 68.9665 43.4368 69.1009C43.4368 69.2352 43.3562 69.3159 43.1681 69.3428C42.4697 69.4234 41.9862 69.6653 41.6907 69.9878C41.3952 70.3372 41.2072 70.821 41.1534 71.4929C41.0997 72.138 41.0729 74.3419 41.0729 78.0509L40.9654 84.6626C40.9654 84.9852 40.9117 85.1733 40.7505 85.1733C40.7236 85.1733 40.6699 85.1464 40.6162 85.1195C40.5625 85.0927 40.2401 84.6626 39.7029 83.8563C39.1387 83.05 38.4672 82.0824 37.6613 80.9536C36.8554 79.8248 36.2107 78.911 35.7541 78.2122C34.7333 76.707 34.0886 75.7664 33.82 75.417C32.826 74.1269 32.2351 73.3205 32.0739 72.9443C31.9664 72.7024 31.859 72.568 31.7515 72.568C31.671 72.568 31.6441 72.7292 31.6441 73.0518L31.671 74.9869C31.671 77.4596 31.7247 79.4216 31.8321 80.8999C31.9396 82.3781 32.047 83.2382 32.1814 83.4801C32.2888 83.7219 32.5037 83.9907 32.7992 84.2595C33.0947 84.5283 33.417 84.6358 33.7394 84.6358C34.196 84.6358 34.4109 84.7433 34.4109 84.9314C34.4109 85.0927 34.2766 85.1464 34.0349 85.1464H29.119C28.8773 85.1464 28.7698 85.0658 28.7698 84.9314C28.7698 84.7701 28.8773 84.6895 29.119 84.6895C29.9518 84.6895 30.5159 84.4745 30.8114 84.0176C31.08 83.5607 31.2412 82.5931 31.2412 81.1149L31.1606 76.707C31.1337 74.1269 31.08 72.5949 30.9725 72.138C30.8651 71.681 30.5965 71.1166 30.1935 70.4447C29.7906 69.7728 29.3339 69.3965 28.8235 69.3159C28.5818 69.289 28.4743 69.2084 28.4743 69.074C28.4743 68.9127 28.6355 68.8321 28.931 68.8321L31.8859 68.859ZM50.5285 68.7783L52.6506 68.7246C55.31 68.7246 57.3516 69.5309 58.6947 71.0898C60.0647 72.6755 60.7362 74.6644 60.7362 77.0833C60.7362 78.8034 60.4139 80.2817 59.7423 81.5449C59.0976 82.8081 58.2649 83.7757 57.271 84.3939C56.2771 85.0389 54.9877 85.3614 53.3222 85.3614C52.9461 85.3614 52.4894 85.3346 51.9253 85.2808C50.9046 85.1733 50.3404 85.1195 50.233 85.1195C48.0034 85.1195 46.6871 85.1464 46.2842 85.2002C46.0693 85.2002 45.935 85.1195 45.935 84.9852C45.935 84.9045 45.9887 84.8239 46.0693 84.797C46.1499 84.7701 46.4185 84.7164 46.8214 84.6626C47.3587 84.582 47.7616 84.3132 47.9765 83.8563C48.1914 83.3994 48.3257 82.0287 48.4063 79.7173L48.5675 73.0787C48.5675 72.2992 48.5138 71.5735 48.4332 70.8479C48.3526 70.1222 48.2183 69.6653 48.0303 69.4771C47.8422 69.2621 47.5736 69.1277 47.1707 69.0471C46.8752 68.9933 46.7409 68.9127 46.7409 68.7783C46.7409 68.6171 46.8214 68.5096 46.9558 68.5096C47.0901 68.5096 47.5199 68.5364 48.2183 68.6171C48.9167 68.7515 49.6957 68.7783 50.5285 68.7783ZM50.1524 80.873C50.1524 81.9749 50.2061 82.7813 50.3404 83.2382C50.4479 83.7219 50.7165 84.0982 51.1195 84.4207C51.5224 84.7164 52.1402 84.8776 52.9998 84.8776C54.2355 84.8776 55.2563 84.5282 56.0084 83.8026C56.7875 83.0769 57.3784 82.1362 57.8082 80.9267C58.238 79.7441 58.4529 78.4809 58.4529 77.1102C58.4529 75.1213 57.9694 73.3205 56.9755 71.7079C55.9816 70.0953 54.4504 69.289 52.3551 69.289C51.4149 69.289 50.8777 69.3159 50.7434 69.3965C50.5822 69.4771 50.5016 69.6922 50.5016 70.0684C50.5016 70.391 50.4748 70.9823 50.421 71.8154C50.3404 73.0249 50.3136 73.9925 50.2867 74.6644L50.1793 78.1047C50.1793 79.7173 50.1524 80.6311 50.1524 80.873ZM70.2456 76.6264C70.6217 76.1158 71.2127 75.1751 71.9917 73.8312C72.7707 72.4874 73.2273 71.6273 73.3617 71.3048C73.496 70.9822 73.5766 70.7135 73.5766 70.5253C73.5766 70.1759 73.4422 69.9072 73.1468 69.719C72.8513 69.504 72.5826 69.4234 72.2872 69.4234C72.0454 69.4234 71.9379 69.3428 71.9379 69.2084C71.9379 69.0471 72.126 68.9665 72.5289 68.9665H76.3971C76.7463 68.9665 76.9344 69.0471 76.9344 69.2352C76.9344 69.3696 76.8538 69.4503 76.6926 69.4503C76.2897 69.4503 75.9136 69.5578 75.5375 69.7997C75.1614 70.0147 74.7048 70.5253 74.1675 71.3048L72.3946 74.2612C71.4544 75.7932 70.944 76.707 70.8903 76.9758C70.7829 77.3521 70.7291 78.4003 70.7291 80.0935C70.7291 82.3243 70.8097 83.6682 70.9709 84.0713C71.1321 84.5014 71.6156 84.7433 72.4752 84.8239C72.6901 84.8508 72.7975 84.9314 72.7975 85.0658C72.7975 85.2271 72.6901 85.3077 72.4483 85.3077L69.6815 85.2271C69.0099 85.2271 68.4727 85.2539 68.0429 85.2808C67.6936 85.3346 67.4788 85.3346 67.3982 85.3346C67.1295 85.3346 67.0221 85.2539 67.0221 85.0927C67.0221 84.9583 67.1295 84.8776 67.3176 84.8776C67.9623 84.8508 68.4189 84.5551 68.6338 83.9638C68.8487 83.3994 68.9562 82.5662 68.9562 81.4374C68.9562 80.2279 68.9025 79.2335 68.7682 78.4809C68.7413 78.2928 68.4458 77.594 67.8817 76.4383C67.3176 75.2557 66.646 73.9656 65.8401 72.5411C65.0343 71.1166 64.4701 70.2566 64.1209 69.934C63.7717 69.6384 63.4494 69.4503 63.1002 69.4234C62.8584 69.3965 62.7241 69.3159 62.7241 69.1815C62.7241 69.1009 62.7509 69.0202 62.8315 68.9934C62.8853 68.9665 63.1002 68.9396 63.3956 68.9396H67.8817C68.1772 68.9396 68.3652 68.9396 68.4458 68.9665C68.4995 68.9934 68.5264 69.0471 68.5264 69.1546C68.5264 69.289 68.4458 69.3696 68.2578 69.3696C67.3982 69.4503 66.9415 69.7728 66.9415 70.3103C66.9415 70.606 67.1027 71.036 67.425 71.6542C67.6937 72.2723 68.6338 73.9387 70.2456 76.6264ZM87.76 85.2002C87.0884 85.3077 86.5512 85.3614 86.1751 85.3614C85.1812 85.3614 84.1873 85.012 83.1934 84.3401C82.1994 83.6682 81.4204 82.7006 80.8294 81.4374C80.2385 80.1742 79.9161 78.7766 79.9161 77.1908C79.9161 74.8794 80.5877 72.8636 81.9308 71.1166C83.2739 69.3696 84.9126 68.5096 86.8467 68.5096C88.0823 68.5096 89.2106 68.8858 90.2045 69.6115C91.1984 70.3372 91.9774 71.3585 92.5415 72.6486C93.1056 73.9387 93.4011 75.2557 93.4011 76.6264C93.4011 77.7284 93.1862 78.8572 92.7833 80.0129C92.3803 81.1686 91.8431 82.1362 91.1984 82.9694C90.5537 83.7757 89.8015 84.4745 88.9419 85.0658C88.0823 85.6571 87.0884 86.2215 85.9333 86.759C85.0737 87.1622 84.4559 87.4847 84.1067 87.6729C84.3753 87.646 84.6171 87.646 84.7514 87.646C85.2618 87.646 85.6916 87.7266 86.0676 87.9416C86.4437 88.1298 87.0616 88.5598 87.948 89.2048C89.0494 90.038 89.909 90.4681 90.4731 90.4681C90.9029 90.4681 91.2521 90.3606 91.5476 90.1187C91.8431 89.8768 92.1923 89.4736 92.5952 88.8554C92.7027 88.6942 92.8102 88.6136 92.8907 88.6136C93.025 88.6136 93.0788 88.6942 93.0788 88.8554C93.0788 89.1511 92.7027 89.7693 91.9774 90.6562C91.2521 91.5431 90.3388 92.0001 89.2643 92.0001C88.727 92.0001 88.1361 91.8388 87.5182 91.5163C86.9004 91.1937 86.0139 90.5218 84.832 89.4736C84.1604 88.8823 83.6231 88.5867 83.1934 88.5867C82.7904 88.5867 82.4949 88.7479 82.3069 89.0436C82.1189 89.3392 82.0114 89.8499 81.9577 90.5218C81.9308 90.9787 81.8502 91.3281 81.7428 91.5163C81.6353 91.7044 81.4473 91.8119 81.1518 91.8119C80.9638 91.8119 80.8026 91.7313 80.6414 91.57C80.4802 91.4088 80.3996 91.1937 80.3996 90.925C80.3996 90.5218 80.5877 90.0112 80.9638 89.4467C81.3398 88.8823 81.8234 88.3717 82.4143 87.9685C83.0322 87.5653 83.9992 87.0547 85.3424 86.4096C86.578 85.8183 87.3839 85.4152 87.76 85.2002ZM82.1726 76.5727C82.1726 77.9434 82.3337 79.3141 82.6561 80.6311C82.9784 81.9481 83.4888 82.9694 84.1873 83.6951C84.8857 84.4207 85.6916 84.7701 86.6049 84.7701C87.948 84.7701 89.0225 84.0176 89.8284 82.4856C90.6611 80.9536 91.0641 79.0991 91.0641 76.8952C91.0641 74.8257 90.6611 72.998 89.8284 71.466C89.0225 69.934 87.9212 69.1546 86.5512 69.1546C85.208 69.1546 84.1335 69.9072 83.3277 71.4392C82.5755 72.9443 82.1726 74.6644 82.1726 76.5727Z" fill="white"/>
<path fill-rule="evenodd" clip-rule="evenodd" d="M57.3515 0C59.5543 2.04265 60.2795 5.26789 58.8827 7.74058C58.4798 8.46626 57.4321 10.3208 56.277 12.3903C53.6176 17.1475 54.1817 16.1531 51.5492 20.9103L42.6577 37.0903L41.0191 40.0467C40.9116 40.2617 36.9897 47.2766 36.8823 47.4917C35.7003 49.9375 35.4048 52.7327 38.1448 54.7753L35.4585 59.6401C33.2558 57.5974 32.5305 54.3722 33.9274 51.8995C34.9213 50.1256 39.676 41.5787 40.6699 39.8317L42.3085 36.8752L51.2 20.7759C53.6714 16.2875 53.6176 16.5831 55.9278 12.1753C57.2172 9.72947 57.4053 6.93427 54.6653 4.89161L57.3515 0Z" fill="white"/>
<path fill-rule="evenodd" clip-rule="evenodd" d="M42.9801 0.725708L43.3293 0.940724C41.9056 3.44029 42.5234 6.10111 45.2634 7.95562L44.6993 7.60622L57.3784 15.4543C60.387 17.3357 61.5421 21.1791 59.9572 24.0281C58.9633 25.7751 55.9278 31.1774 54.9339 32.9244L54.5847 32.7093C55.0682 31.8493 57.3515 28.0327 57.7008 26.4201C58.1306 24.4312 57.7008 22.4423 55.3637 20.8835L43.2487 13.3848C40.2401 11.5034 39.085 7.65998 40.6699 4.81101L41.2072 3.84344C41.7981 2.79524 42.3891 1.77391 42.9801 0.725708Z" fill="white"/>
<path fill-rule="evenodd" clip-rule="evenodd" d="M38.6551 8.38574L39.0043 8.60076C37.5806 11.1003 38.1985 13.7611 40.9385 15.6157L40.3743 15.2663L53.0535 23.1143C56.0621 24.9957 57.2172 28.8391 55.6323 31.6881C54.6384 33.4351 53.6444 35.209 52.6505 36.956L52.3013 36.741C53.8325 34.0533 54.4503 30.8012 51.0388 28.5435L38.9238 21.0179C35.9151 19.1365 34.7601 15.2931 36.3449 12.4442L36.8822 11.4766C37.4732 10.4553 38.0642 9.43395 38.6551 8.38574Z" fill="white"/>
<path fill-rule="evenodd" clip-rule="evenodd" d="M34.3303 16.0455L34.6795 16.2605C33.2558 18.7601 33.8736 21.4209 36.6136 23.2754L36.0495 22.926L56.6799 35.827C59.6886 37.7084 60.8436 41.5518 59.2588 44.4008C58.2648 46.1478 53.4564 54.6678 52.4625 56.4417L52.1133 56.2267C52.2476 56.0116 56.1696 49.0236 56.277 48.8086C57.5396 46.2553 57.8082 43.3526 54.6653 41.2562L34.5989 28.7046C31.5903 26.8232 30.4352 22.9798 32.0201 20.1308L32.5574 19.1633C33.1483 18.1151 33.7393 17.0669 34.3303 16.0455Z" fill="white"/>
<path fill-rule="evenodd" clip-rule="evenodd" d="M61.1929 17.7657L61.0049 18.0883C63.6643 19.7815 64.6045 22.3617 63.1807 25.0494L63.4762 24.5119L59.7692 30.8549C58.1574 33.6232 59.2051 37.4397 62.1062 39.3749L64.2284 35.6121C64.309 35.3702 64.4164 35.1552 64.5507 34.9133L67.4788 29.9142L67.9623 29.1078C69.6009 26.2858 68.4995 22.4155 65.4909 20.5072L64.4701 19.8622C63.3688 19.1634 62.2943 18.4645 61.1929 17.7657Z" fill="white"/>
<path fill-rule="evenodd" clip-rule="evenodd" d="M27.6416 27.8715L27.9908 28.0865C26.5671 30.586 27.1849 33.2469 29.9249 35.1014L29.3608 34.752L49.9912 47.6529C52.9998 49.5343 54.1549 53.3777 52.57 56.2267C51.5761 57.9737 50.5822 59.7476 49.5883 61.4946L49.2391 61.2796C50.7702 58.5919 51.3881 55.3398 47.9765 53.0821L27.9102 40.5305C24.9016 38.6491 23.7465 34.8057 25.3314 31.9568L25.8687 30.9892C26.4596 29.941 27.0506 28.9197 27.6416 27.8715Z" fill="white"/>
</svg>
