<svg width="27" height="17" viewBox="0 0 27 17" fill="none" xmlns="http://www.w3.org/2000/svg">
<path d="M13.5067 1.49856e-06C10.503 1.49856e-06 7.5015 0.864894 4.90613 2.59578H0L2.20837 4.95107C1.20218 5.85003 0.496819 7.02641 0.18495 8.32569C-0.126918 9.62497 -0.0307063 10.9864 0.460947 12.231C0.952601 13.4757 1.8167 14.5455 2.93973 15.2997C4.06276 16.054 5.39219 16.4575 6.75337 16.4572C8.45417 16.4587 10.0923 15.828 11.3378 14.6921L13.5 17L15.6622 14.6944C16.9069 15.829 18.5438 16.4589 20.2432 16.4572C22.0331 16.4572 23.7496 15.7602 25.0154 14.5193C26.2812 13.2785 26.9927 11.5955 26.9932 9.84036C26.9943 8.9199 26.799 8.0094 26.4198 7.16737C26.0406 6.32534 25.486 5.57041 24.7916 4.95107L27 2.59578H22.1062C19.5707 0.903195 16.5741 -0.00134385 13.5067 1.49856e-06ZM13.5 2.16223C15.2224 2.16223 16.9459 2.4965 18.567 3.15841C15.6859 4.23952 13.5 6.76801 13.5 9.7135C13.5 6.76691 11.3152 4.23952 8.433 3.15841C10.0385 2.50222 11.7606 2.16404 13.5 2.16334V2.16223ZM6.75225 5.36366C7.35191 5.36366 7.94571 5.47948 8.49973 5.70451C9.05374 5.92954 9.55714 6.25938 9.98116 6.67518C10.4052 7.09098 10.7415 7.58461 10.971 8.12789C11.2005 8.67116 11.3186 9.25343 11.3186 9.84147C11.3186 10.4295 11.2005 11.0118 10.971 11.555C10.7415 12.0983 10.4052 12.592 9.98116 13.0078C9.55714 13.4236 9.05374 13.7534 8.49973 13.9784C7.94571 14.2035 7.35191 14.3193 6.75225 14.3193C5.54117 14.3193 4.3797 13.8475 3.52334 13.0078C2.66697 12.168 2.18587 11.0291 2.18587 9.84147C2.18587 8.65388 2.66697 7.51493 3.52334 6.67518C4.3797 5.83543 5.54117 5.36366 6.75225 5.36366ZM20.2432 5.36587C20.8427 5.36565 21.4363 5.48121 21.9902 5.70596C22.5441 5.93071 23.0474 6.26024 23.4715 6.67573C23.8955 7.09123 24.2319 7.58455 24.4615 8.12754C24.6911 8.67053 24.8094 9.25255 24.8096 9.84036C24.8098 10.4282 24.692 11.0103 24.4628 11.5534C24.2336 12.0966 23.8976 12.5902 23.4739 13.006C23.0501 13.4218 22.5471 13.7517 21.9933 13.9768C21.4396 14.202 20.8461 14.318 20.2466 14.3182C19.036 14.3186 17.8748 13.8474 17.0184 13.0083C16.162 12.1692 15.6807 11.0308 15.6803 9.84367C15.6798 8.65652 16.1603 7.51782 17.016 6.67807C17.8718 5.83832 19.0326 5.36631 20.2432 5.36587ZM6.75225 7.495C6.11732 7.495 5.5084 7.74234 5.05944 8.18259C4.61047 8.62284 4.35825 9.21996 4.35825 9.84257C4.35825 10.4652 4.61047 11.0623 5.05944 11.5026C5.5084 11.9428 6.11732 12.1901 6.75225 12.1901C7.38718 12.1901 7.9961 11.9428 8.44506 11.5026C8.89403 11.0623 9.14625 10.4652 9.14625 9.84257C9.14625 9.21996 8.89403 8.62284 8.44506 8.18259C7.9961 7.74234 7.38718 7.495 6.75225 7.495ZM20.2432 7.495C19.6083 7.495 18.9994 7.74234 18.5504 8.18259C18.1015 8.62284 17.8493 9.21996 17.8493 9.84257C17.8493 10.4652 18.1015 11.0623 18.5504 11.5026C18.9994 11.9428 19.6083 12.1901 20.2432 12.1901C20.8782 12.1901 21.4871 11.9428 21.9361 11.5026C22.385 11.0623 22.6372 10.4652 22.6372 9.84257C22.6372 9.21996 22.385 8.62284 21.9361 8.18259C21.4871 7.74234 20.8782 7.495 20.2432 7.495Z" fill="#FBD784"/>
</svg>
