<svg width="40" height="25" viewBox="0 0 40 25" fill="none" xmlns="http://www.w3.org/2000/svg">
<path d="M20.01 2.20376e-06C15.56 2.20376e-06 11.1133 1.2719 7.26833 3.81733H0L3.27167 7.28099C1.78101 8.60298 0.736028 10.333 0.274001 12.2437C-0.188027 14.1544 -0.0454908 16.1564 0.682885 17.9868C1.41126 19.8172 2.69141 21.3904 4.35515 22.4996C6.0189 23.6088 7.98843 24.2022 10.005 24.2018C12.5247 24.204 14.9516 23.2764 16.7967 21.6061L20 25L23.2033 21.6093C25.0473 23.2779 27.4724 24.2042 29.99 24.2018C32.6416 24.2018 35.1846 23.1767 37.0599 21.352C38.9352 19.5272 39.9891 17.0522 39.99 14.4711C39.9915 13.1175 39.7022 11.7785 39.1404 10.5403C38.5787 9.30198 37.7571 8.19178 36.7283 7.28099L40 3.81733H32.75C28.9936 1.32823 24.5542 -0.00197625 20.01 2.20376e-06ZM20 3.17976C22.5517 3.17976 25.105 3.67132 27.5067 4.64471C23.2383 6.23459 20 9.95295 20 14.2846C20 9.95133 16.7633 6.23459 12.4933 4.64471C14.8719 3.67973 17.4231 3.18241 20 3.18138V3.17976ZM10.0033 7.88774C10.8917 7.88774 11.7714 8.05806 12.5922 8.38899C13.413 8.71992 14.1587 9.20497 14.7869 9.81644C15.4151 10.4279 15.9134 11.1538 16.2534 11.9528C16.5934 12.7517 16.7683 13.608 16.7683 14.4727C16.7683 15.3375 16.5934 16.1938 16.2534 16.9927C15.9134 17.7916 15.4151 18.5176 14.7869 19.1291C14.1587 19.7405 13.413 20.2256 12.5922 20.5565C11.7714 20.8874 10.8917 21.0578 10.0033 21.0578C8.20914 21.0578 6.48844 20.364 5.21976 19.1291C3.95107 17.8941 3.23833 16.2192 3.23833 14.4727C3.23833 12.7263 3.95107 11.0514 5.21976 9.81644C6.48844 8.58151 8.20914 7.88774 10.0033 7.88774ZM29.99 7.89098C30.8781 7.89066 31.7575 8.06061 32.5781 8.39112C33.3987 8.72163 34.1444 9.20623 34.7725 9.81725C35.4007 10.4283 35.8991 11.1538 36.2393 11.9523C36.5794 12.7508 36.7547 13.6067 36.755 14.4711C36.7553 15.3356 36.5807 16.1916 36.2412 16.9904C35.9016 17.7891 35.4038 18.5149 34.7761 19.1264C34.1484 19.7379 33.403 20.223 32.5827 20.5541C31.7624 20.8852 30.8831 21.0558 29.995 21.0561C28.2015 21.0568 26.4811 20.3639 25.2125 19.1299C23.9438 17.8958 23.2307 16.2218 23.23 14.476C23.2293 12.7302 23.9412 11.0556 25.2089 9.82069C26.4767 8.58576 28.1965 7.89163 29.99 7.89098ZM10.0033 11.0221C9.0627 11.0221 8.16059 11.3858 7.49546 12.0332C6.83033 12.6807 6.45667 13.5588 6.45667 14.4744C6.45667 15.39 6.83033 16.2681 7.49546 16.9155C8.16059 17.5629 9.0627 17.9267 10.0033 17.9267C10.944 17.9267 11.8461 17.5629 12.5112 16.9155C13.1763 16.2681 13.55 15.39 13.55 14.4744C13.55 13.5588 13.1763 12.6807 12.5112 12.0332C11.8461 11.3858 10.944 11.0221 10.0033 11.0221ZM29.99 11.0221C29.0494 11.0221 28.1473 11.3858 27.4821 12.0332C26.817 12.6807 26.4433 13.5588 26.4433 14.4744C26.4433 15.39 26.817 16.2681 27.4821 16.9155C28.1473 17.5629 29.0494 17.9267 29.99 17.9267C30.9306 17.9267 31.8327 17.5629 32.4979 16.9155C33.163 16.2681 33.5367 15.39 33.5367 14.4744C33.5367 13.5588 33.163 12.6807 32.4979 12.0332C31.8327 11.3858 30.9306 11.0221 29.99 11.0221Z" fill="white"/>
</svg>
