<svg width="193" height="165" viewBox="0 0 193 165" fill="none" xmlns="http://www.w3.org/2000/svg">
<path d="M188.399 2.72933C188.52 2.97696 188.34 3.10951 188.224 3.23174C187.642 3.84685 187.033 4.43497 186.459 5.05722C185.993 5.56201 185.567 6.10489 185.117 6.62476C184.482 7.35733 183.839 8.08356 183.203 8.81534C183.08 8.95741 182.967 9.10742 182.854 9.25822C182.157 10.1876 181.447 11.1075 180.77 12.052C179.911 13.2505 179.07 14.4616 178.243 15.6808C177.732 16.4316 177.231 17.1919 176.779 17.9785C176.123 19.119 175.453 20.2516 174.88 21.4413C174.022 23.2224 173.078 24.9606 172.218 26.74C171.576 28.0671 171.014 29.433 170.409 30.7783C169.805 32.1228 169.189 33.4626 168.587 34.8087C168.516 34.969 168.499 35.1539 168.434 35.4214C168.598 35.3396 168.691 35.3238 168.732 35.269C169.486 34.2285 170.218 33.1721 170.987 32.1434C171.662 31.2402 172.341 30.3338 173.087 29.4886C174.065 28.3774 174.911 27.1702 175.792 25.9868C176.896 24.501 177.989 23.0065 179.085 21.5144C179.903 20.4024 180.705 19.2793 181.538 18.1785C182.636 16.726 183.756 15.2895 184.871 13.8497C185.082 13.5767 185.302 13.3068 185.546 13.064C185.923 12.6885 186.344 12.356 186.373 11.756C186.379 11.6472 186.49 11.5401 186.56 11.4377C187.255 10.4297 187.935 9.4122 188.65 8.41929C189.384 7.40019 190.117 6.37951 190.718 5.27628C191.257 4.28496 191.754 3.27142 192.262 2.26344C192.42 1.95072 192.523 1.62214 192.385 1.26577C192.275 0.980042 191.969 0.825273 191.7 0.971312C191.349 1.16259 190.949 1.28403 190.715 1.665C190.604 1.84358 190.402 1.97136 190.226 2.10073C189.945 2.30709 189.651 2.32773 189.324 2.07692C189.339 1.5896 189.668 1.24275 189.938 0.875275C190.002 0.788763 190.153 0.754635 190.27 0.722093C190.39 0.688758 190.541 0.725268 190.639 0.665741C191.207 0.322074 191.8 0.525259 192.381 0.580023C192.805 0.620501 193.023 0.934802 192.998 1.37768C192.971 1.85469 192.814 2.29598 192.629 2.7333C192.054 4.09527 191.336 5.37867 190.513 6.60492C189.849 7.59385 189.179 8.57723 188.516 9.56696C188.185 10.0614 187.853 10.5559 187.545 11.0647C187.234 11.5766 186.915 12.0774 186.473 12.4885C186.428 12.5306 186.381 12.5806 186.359 12.637C186.01 13.5283 185.317 14.1799 184.766 14.9315C184.007 15.9681 183.263 17.0157 182.508 18.0547C182.362 18.2555 182.192 18.438 182.03 18.6277C181.948 18.723 181.843 18.8023 181.78 18.9079C181.09 20.0691 180.138 21.0429 179.431 22.1938C179.088 22.7525 178.67 23.2645 178.282 23.7954C177.469 24.9121 176.649 26.0233 175.841 27.144C175.456 27.6782 175.12 28.2496 174.711 28.7631C174.087 29.5473 173.399 30.283 172.772 31.0648C172.302 31.6498 171.889 32.2808 171.44 32.8832C171.196 33.2094 170.918 33.5086 170.675 33.8356C169.741 35.092 168.829 36.3667 167.875 37.6088C167.429 38.1914 167.165 38.862 166.834 39.4994C166.415 40.3057 166.041 41.1367 165.667 41.9661C165.101 43.2233 164.551 44.4885 163.993 45.7505C163.499 46.8696 163.002 47.9871 162.51 49.107C162.106 50.0261 161.744 50.965 161.299 51.8634C160.172 54.139 159.208 56.4914 158.011 58.7328C157.731 59.2559 157.536 59.8234 157.287 60.3631C157.091 60.7893 156.869 61.2036 156.663 61.625C156.499 61.9623 156.342 62.3036 156.178 62.6402C155.958 63.091 155.728 63.5362 155.514 63.9894C155.453 64.1196 155.43 64.2688 155.381 64.4418C155.903 64.5855 156.379 64.5014 156.823 64.426C158.658 64.114 160.518 64.1482 162.362 63.9688C165.055 63.7061 167.763 63.8251 170.461 63.7108C171.437 63.6696 172.405 63.6989 173.375 63.7624C173.686 63.7831 173.999 63.8378 174.302 63.9132C174.478 63.9577 174.659 64.0474 174.797 64.164C174.988 64.326 175.177 64.5402 175.084 64.8141C174.969 65.1538 174.701 65.2784 174.338 65.2006C174.284 65.0411 174.237 64.8974 174.192 64.7609C174.129 64.726 174.078 64.676 174.022 64.6704C172.108 64.4823 170.198 64.6037 168.29 64.7712C168.009 64.7958 167.727 64.8323 167.445 64.8339C165.496 64.8426 163.556 64.9958 161.618 65.1942C160.588 65.2998 159.55 65.3355 158.519 65.4443C157.365 65.5657 156.215 65.7355 155.063 65.8784C154.747 65.9173 154.56 66.0919 154.434 66.3729C153.733 67.9476 153.013 69.5151 152.324 71.0953C151.446 73.1081 150.636 75.1527 149.711 77.1432C149.13 78.3941 148.749 79.7267 148.074 80.9394C147.789 81.4522 147.693 82.0665 147.471 82.6189C146.342 85.446 145.19 88.2644 144.066 91.0931C143.719 91.9654 143.445 92.8662 143.119 93.7472C142.935 94.2472 142.708 94.7322 142.515 95.229C142.391 95.5505 142.264 95.8759 142.191 96.2108C142.077 96.7347 141.932 97.2339 141.684 97.7196C141.446 98.1871 141.315 98.7117 141.153 99.2157C140.76 100.44 140.375 101.667 139.991 102.894C139.738 103.701 139.48 104.507 139.248 105.32C138.895 106.556 138.579 107.801 138.218 109.034C137.929 110.027 137.578 111.003 137.288 111.997C136.823 113.593 136.376 115.195 135.939 116.799C135.279 119.222 134.783 121.683 134.248 124.135C133.761 126.373 133.196 128.593 132.672 130.823C132.55 131.342 132.448 131.866 132.348 132.39C132.113 133.623 131.89 134.859 131.653 136.091C131.546 136.645 131.4 137.191 131.298 137.746C131.039 139.166 130.834 140.598 130.533 142.009C130.096 144.063 129.645 146.115 128.82 148.066C128.406 149.046 128.105 150.071 127.595 151.016C127.372 151.429 127.058 151.714 126.685 151.937C126.323 152.154 125.887 152.242 125.518 151.989C124.669 151.407 123.772 150.888 123.189 149.975C122.763 149.306 122.617 148.587 122.57 147.83C122.514 146.912 122.228 146.066 121.854 145.238C121.755 145.018 121.669 144.754 121.694 144.523C121.804 143.507 121.595 142.526 121.437 141.536C121.397 141.29 121.329 141.042 121.334 140.796C121.375 138.85 121.403 136.904 121.491 134.96C121.54 133.864 121.676 132.771 121.803 131.678C122.05 129.557 122.424 127.455 122.874 125.367C123.039 124.6 123.235 123.84 123.426 123.08C123.472 122.898 123.538 122.716 123.623 122.55C124.216 121.41 124.808 120.269 125.419 119.138C125.797 118.437 126.379 117.902 126.958 117.37C127.281 117.072 127.582 116.743 127.936 116.487C129.126 115.628 129.541 113.203 129.139 111.885C129.004 111.448 128.799 111.085 128.359 110.881C127.615 110.536 126.961 110.053 126.3 109.57C125.527 109.005 125.043 108.255 124.727 107.391C124.264 106.122 123.769 104.873 123.081 103.705C122.876 103.357 122.757 102.96 122.573 102.597C122.318 102.094 122.045 101.599 121.77 101.107C121.464 100.559 121.15 100.016 120.834 99.4729C120.676 99.2014 120.526 98.9237 120.34 98.6729C119.853 98.0204 119.348 97.3815 118.852 96.7363C118.776 96.637 118.691 96.5394 118.636 96.4283C118.194 95.5521 117.525 94.8346 116.971 94.0377C116.448 93.2877 116.019 92.4932 115.807 91.59C115.656 90.9479 115.452 90.3193 115.28 89.6819C114.898 88.2731 115.003 86.9009 115.506 85.527C115.951 84.3111 116.484 83.1491 117.169 82.0506C117.569 81.4093 118.006 80.8037 118.525 80.2497C119.62 79.0806 120.682 77.8798 121.782 76.7162C122.647 75.8019 123.62 75.009 124.671 74.3129C124.749 74.2606 124.824 74.2034 124.896 74.1431C125.944 73.2669 127.165 72.6922 128.4 72.147C129.017 71.8739 129.504 71.5096 129.875 70.908C130.215 70.3564 130.701 69.8794 131.18 69.4325C132.006 68.6627 132.906 67.9722 133.724 67.1936C134.836 66.1348 135.894 65.0188 136.985 63.9386C137.341 63.5862 137.727 63.264 138.108 62.9386C138.341 62.7386 138.63 62.6656 138.897 62.8259C139.986 63.4823 141.197 63.395 142.381 63.3902C144.942 63.3791 147.313 62.5822 149.617 61.5425C150.045 61.3496 150.467 61.1425 150.905 60.975C151.85 60.6131 152.656 60.0011 153.543 59.536C153.818 59.3916 154.069 59.1884 154.301 58.9797C154.813 58.5177 155.307 58.0376 155.805 57.5605C156.24 57.1439 156.562 56.6438 156.856 56.1216C157.472 55.0271 158.097 53.9405 158.448 52.7182C158.585 52.2389 158.807 51.7809 159.021 51.3277C159.447 50.4205 159.892 49.5221 160.334 48.6228C160.693 47.891 161.079 47.1704 161.418 46.4291C161.876 45.4274 162.448 44.4925 163.025 43.5599C163.486 42.8146 163.968 42.082 164.45 41.3502C164.985 40.5383 165.509 39.724 165.878 38.8152C166.491 37.304 167.107 35.7928 167.767 34.3015C168.782 32.0077 169.876 29.7481 170.857 27.44C171.572 25.759 172.459 24.1708 173.286 22.5501C173.884 21.3786 174.605 20.2699 175.252 19.1222C175.605 18.496 175.904 17.842 176.309 17.2411C177.257 15.8363 178.178 14.414 179.095 12.9894C179.466 12.4123 180.019 11.9568 180.241 11.2805C180.776 10.9154 180.989 10.2916 181.409 9.82888C182.04 9.13202 182.645 8.40818 183.211 7.65814C184.067 6.52317 185.095 5.55566 186.095 4.55958C186.606 4.05003 187.147 3.56985 187.683 3.08808C187.888 2.90791 188.092 2.70155 188.399 2.72933ZM123.612 146.011C123.596 146.09 123.591 146.22 123.545 146.333C123.272 146.994 123.402 147.56 123.925 148.041C123.948 148.063 123.97 148.086 123.988 148.111C124.37 148.677 124.846 149.183 124.844 149.95C124.844 150.237 125.052 150.536 125.203 150.809C125.534 151.41 126.122 151.449 126.567 150.905C127.17 150.167 127.567 149.309 127.897 148.428C128.227 147.548 128.495 146.643 128.778 145.746C129.108 144.697 129.375 143.632 129.544 142.543C129.698 141.551 129.867 140.561 130.053 139.574C130.396 137.755 130.792 135.944 131.098 134.119C131.317 132.817 131.593 131.532 131.91 130.251C132.265 128.821 132.561 127.377 132.874 125.936C133.013 125.292 133.082 124.63 133.27 124.001C133.567 123.006 133.737 121.986 133.971 120.979C134.459 118.871 134.941 116.761 135.473 114.663C135.835 113.235 136.27 111.826 136.683 110.411C137.061 109.116 137.461 107.828 137.839 106.534C138.199 105.299 138.515 104.05 138.902 102.823C139.485 100.968 140.099 99.1229 140.726 97.2823C141.384 95.3521 142.049 93.4242 142.757 91.5122C143.269 90.1296 143.854 88.774 144.412 87.4088C144.804 86.45 145.246 85.5087 145.594 84.5349C146.335 82.4649 147.182 80.4386 148.08 78.4362C148.722 77.0051 149.212 75.5114 149.931 74.1121C150.344 73.3065 150.625 72.4343 151.001 71.6073C151.74 69.9794 152.507 68.3634 153.253 66.738C153.323 66.5864 153.325 66.403 153.363 66.2165C152.953 66.0752 152.623 66.1935 152.291 66.2713C151.894 66.3649 151.501 66.4737 151.102 66.553C149.196 66.9308 147.282 67.269 145.397 67.7452C143.695 68.1761 142.002 68.6452 140.303 69.0905C139.667 69.2571 139.018 69.3802 138.388 69.5651C137.005 69.9715 135.633 70.4159 134.249 70.8247C132.829 71.2445 131.47 71.8049 130.22 72.5986C129.657 72.9557 129.077 73.2256 128.432 73.3819C128.193 73.4399 127.963 73.5629 127.746 73.6859C126.378 74.4606 125.081 75.3424 123.876 76.3543C122.744 77.3044 121.679 78.3219 120.786 79.5068C120.616 79.7315 120.423 79.9442 120.215 80.1331C119.466 80.8117 118.875 81.6093 118.346 82.4681C117.953 83.1062 117.611 83.7816 117.077 84.3285C116.748 84.665 116.821 85.1524 116.667 85.55C116.512 85.9524 116.18 86.2889 116.152 86.7477C116.1 87.6231 115.991 88.5049 116.202 89.3708C116.313 89.8256 116.483 90.2677 116.657 90.7042C117.051 91.6931 117.464 92.6622 118.079 93.5544C119.734 95.9545 121.435 98.33 122.675 100.99C122.913 101.501 123.247 101.967 123.486 102.478C124.31 104.239 125.115 106.009 125.916 107.78C126.062 108.103 126.261 108.362 126.524 108.601C127.179 109.197 127.922 109.659 128.67 110.12C129.278 110.494 129.692 110.985 129.829 111.741C130.007 112.725 130.013 113.688 129.684 114.62C129.457 115.264 129.302 115.962 128.816 116.484C128.453 116.875 128.05 117.227 127.675 117.607C127.302 117.986 126.901 118.347 126.587 118.771C125.915 119.678 125.384 120.668 124.901 121.694C124.294 122.983 123.854 124.311 123.588 125.705C123.481 126.26 123.362 126.813 123.272 127.371C123.081 128.548 122.873 129.724 122.732 130.907C122.572 132.247 122.458 133.594 122.359 134.94C122.253 136.379 122.108 137.816 122.226 139.266C122.325 140.486 122.335 141.712 122.399 142.935C122.427 143.464 122.447 144.007 122.899 144.375C122.854 144.548 122.816 144.696 122.77 144.877C123.092 145.2 123.491 145.477 123.612 146.011ZM162.016 47.1108C161.92 47.2664 161.812 47.4093 161.739 47.5688C161.273 48.5966 160.819 49.63 160.354 50.6578C159.721 52.0571 159.12 53.4723 158.43 54.843C157.981 55.7335 157.573 56.6645 156.853 57.3963C156.771 57.4796 156.704 57.6098 156.691 57.7248C156.619 58.3709 156.207 58.8257 155.73 59.1519C154.802 59.7892 153.835 60.3837 152.838 60.9067C151.561 61.5766 150.245 62.1758 148.932 62.7759C147.275 63.5331 145.577 64.1839 143.774 64.5037C143.283 64.591 142.768 64.5744 142.288 64.6998C141.17 64.9919 140.112 64.7609 139.057 64.4283C138.824 64.3545 138.611 64.1744 138.352 64.3545C138.056 64.5593 138.239 64.7918 138.292 65.0268C138.307 65.095 138.243 65.2228 138.18 65.2546C138.12 65.2855 138.009 65.2403 137.93 65.2062C137.824 65.1601 137.727 65.0927 137.645 65.045C137.119 65.5197 136.63 65.9578 136.145 66.4015C135.636 66.8673 135.132 67.3388 134.624 67.8063C134.139 68.2523 133.649 68.6928 133.167 69.1421C132.679 69.5968 132.068 69.9302 131.659 70.608C131.851 70.5802 131.949 70.5921 132.018 70.5532C133.649 69.6445 135.435 69.1389 137.208 68.627C139.224 68.0444 141.27 67.565 143.304 67.0467C146.646 66.1959 149.986 65.3411 153.422 64.9395C153.484 64.9323 153.544 64.9061 153.605 64.8958C154.015 64.8244 154.255 64.5736 154.424 64.2005C155.133 62.6282 155.844 61.056 156.583 59.4971C157.792 56.9478 159.042 54.4167 160.24 51.8627C160.905 50.4459 161.504 48.9974 162.125 47.5601C162.183 47.4267 162.243 47.2656 162.016 47.1108ZM162.327 46.4949C162.343 46.5172 162.37 46.56 162.373 46.5576C162.421 46.533 162.466 46.5021 162.512 46.4719C162.481 46.4378 162.451 46.4037 162.42 46.3703C162.389 46.4116 162.358 46.4529 162.327 46.4949Z" fill="#FBD784"/>
<path d="M81.58 116.933C81.5458 117.157 81.5689 117.305 81.5054 117.371C80.8807 118.023 80.2259 118.648 79.6116 119.31C79.1449 119.812 78.7243 120.357 78.2822 120.883C78.1608 121.026 78.0409 121.172 77.9092 121.307C76.9869 122.249 76.0511 123.176 75.1416 124.13C74.7106 124.581 74.3026 125.06 73.9304 125.561C73.7209 125.842 73.474 126.062 73.2224 126.297C72.8375 126.658 72.5129 127.085 72.1779 127.495C71.5438 128.273 70.9191 129.059 70.2937 129.844C69.9048 130.333 69.5421 130.844 69.131 131.314C68.1547 132.432 67.3769 133.69 66.5943 134.937C65.6951 136.369 64.7744 137.796 64.0966 139.356C63.8093 140.017 63.5005 140.672 63.2632 141.351C62.8703 142.474 62.5251 143.614 62.1663 144.749C62.1005 144.958 62.0433 145.174 62.0187 145.39C61.7481 147.8 61.6377 150.204 61.9989 152.622C62.2092 154.029 62.6076 155.374 63.0767 156.702C63.3156 157.378 63.618 158.035 64.0267 158.637C64.3085 159.052 64.5712 159.481 64.8363 159.908C65.2205 160.525 65.6967 161.049 66.253 161.527C67.5388 162.632 69.0389 163.184 70.6834 163.447C72.3494 163.714 74.0002 163.651 75.6456 163.315C75.921 163.259 76.1956 163.184 76.4567 163.082C77.1282 162.819 77.7941 162.54 78.4584 162.258C78.6298 162.185 78.8021 162.096 78.9481 161.98C80.6196 160.655 82.2943 159.333 83.6904 157.702C84.7762 156.433 85.6619 155.025 86.5239 153.603C87.5485 151.914 88.3993 150.132 89.2065 148.332C89.9105 146.762 90.5828 145.177 91.2003 143.572C91.5606 142.635 91.886 141.685 92.2249 140.741C92.713 139.382 93.2059 138.024 93.6853 136.662C94.3409 134.797 95.0021 132.933 95.6299 131.059C96.1378 129.542 96.5934 128.008 97.0863 126.487C97.7823 124.339 98.507 122.2 99.1911 120.048C99.7332 118.343 100.229 116.625 100.752 114.913C101.218 113.382 101.695 111.854 102.163 110.323C102.584 108.943 102.989 107.557 103.419 106.18C103.728 105.191 104.052 104.208 104.395 103.231C104.872 101.869 105.343 100.505 105.867 99.1602C106.676 97.0847 107.503 95.0163 108.367 92.9631C109.096 91.2288 109.831 89.4923 110.666 87.8081C111.528 86.0707 112.365 84.3174 113.364 82.6483C114.118 81.3887 114.809 80.0902 115.528 78.8068C115.427 78.6195 115.284 78.6552 115.14 78.7425C114.685 79.0203 114.232 79.3021 113.778 79.5823C112.277 80.5077 110.697 81.268 109.032 81.849C108.855 81.9109 108.673 81.9562 108.495 82.0165C107.37 82.4006 106.399 82.1117 105.534 81.3458C105.442 81.2641 105.335 81.1998 105.205 81.1053C105.041 81.2006 104.87 81.276 104.727 81.3863C103.379 82.4276 101.883 83.2237 100.385 84.0158C99.9134 84.265 99.4261 84.4841 98.9538 84.7317C98.5006 84.9698 98.0173 85.0746 97.5133 85.1309C96.7164 85.2198 96.0934 84.9849 95.7013 84.2491C95.6013 84.0618 95.4711 83.8904 95.3211 83.6602C95.129 83.7769 94.9751 83.8682 94.8235 83.9626C93.7583 84.6254 92.7186 85.3262 91.567 85.846C90.7518 86.2143 89.9018 86.4358 89.0264 86.4683C88.0819 86.5032 87.2175 86.2524 86.7278 85.3087C86.6461 85.1516 86.4921 85.0317 86.3453 84.865C86.1905 84.9738 86.05 85.0428 85.9469 85.1484C84.2245 86.9136 82.2538 88.3454 80.0918 89.5208C79.4354 89.878 78.737 89.9939 77.9941 89.8621C77.6647 89.8034 77.4004 89.6645 77.2179 89.3851C76.6686 88.547 76.3416 87.6842 76.6178 86.6374C76.9226 85.4817 77.2186 84.3341 77.7687 83.2618C77.9965 82.8173 78.1449 82.3316 78.3179 81.8601C78.5528 81.2204 78.8814 80.6807 79.5616 80.4117C79.8172 80.3109 80.0267 80.095 80.2624 79.9394C80.6363 79.6934 81.4387 79.6989 81.7665 79.9894C82.0482 80.2386 82.3078 80.541 82.3054 80.9474C82.303 81.3831 82.2983 81.83 82.2054 82.2522C82.0983 82.7396 81.8943 83.2047 81.7324 83.6801C81.6109 84.0356 81.4887 84.3912 81.3665 84.7468C81.1895 85.2611 81.0577 85.3119 80.4474 85.1039C80.318 84.7579 80.514 84.469 80.6855 84.2317C81.2625 83.4316 81.2474 82.4506 81.557 81.5712C81.6054 81.4331 81.5784 81.2585 81.5522 81.1061C81.5157 80.8903 81.4593 80.6506 81.2284 80.5712C80.9736 80.4839 80.8228 80.6815 80.6958 80.8641C80.2117 81.5609 79.7021 82.2364 79.0981 82.8356C79.0322 82.9007 78.9656 82.9777 78.9314 83.0618C78.3235 84.569 77.5869 86.0461 77.6838 87.7374C77.7234 88.4287 78.1346 88.9105 78.9251 88.8113C79.1695 88.7803 79.4029 88.6684 79.6426 88.5978C80.0037 88.4914 80.3696 88.3993 80.7268 88.2795C80.8998 88.2216 81.0752 88.1382 81.2165 88.0255C82.0244 87.3842 82.8316 86.7405 83.6221 86.0778C84.3674 85.4532 85.0912 84.8047 85.8921 84.1087C85.9111 83.8714 85.981 83.557 85.9516 83.2523C85.858 82.2554 86.0905 81.3157 86.4104 80.3918C86.6461 79.7116 86.9159 79.0425 87.1882 78.3758C87.4041 77.8457 87.7446 77.3956 88.1438 76.9869C88.3184 76.8083 88.4914 76.6202 88.6232 76.4099C88.7613 76.1884 88.9097 75.9884 89.1605 75.9075C89.5018 75.7971 89.6042 75.4995 89.7407 75.1931C90.0629 75.1892 90.4145 75.4321 90.7011 75.1146C91.5606 74.932 92.0043 75.3805 91.8876 76.1765C91.8352 76.5345 91.6368 76.8845 91.4495 77.2067C90.6606 78.5624 89.8375 79.8981 89.0549 81.2569C88.6621 81.9387 88.2033 82.557 87.6485 83.1134C87.1104 83.6539 87.0953 84.1103 87.5826 84.6722C88.1104 85.2809 88.7446 85.5802 89.5859 85.4222C90.9915 85.1579 92.3043 84.7 93.4591 83.8301C93.7837 83.5856 94.1417 83.3832 94.4965 83.1824C95.056 82.8665 95.3949 82.4316 95.4132 81.7593C95.4449 80.5775 95.8259 79.483 96.2958 78.4139C96.4474 78.0695 96.587 77.7203 96.7402 77.3774C96.8037 77.2353 96.8633 77.0766 96.9688 76.9694C97.3053 76.6281 97.4672 76.2257 97.6284 75.7733C97.7982 75.2955 98.226 74.9058 98.5586 74.4923C98.6284 74.4058 98.7776 74.332 98.8864 74.336C99.2903 74.3526 99.7031 74.3606 100.092 74.4558C100.54 74.5653 100.887 74.8582 100.953 75.3487C101.011 75.7829 101.019 76.2186 100.845 76.6472C100.348 77.875 99.7174 79.0394 98.9681 80.1204C98.4736 80.8331 97.9157 81.5284 97.1934 82.0538C97.0418 82.1641 96.9006 82.2919 96.768 82.4252C96.4823 82.7126 96.4339 83.2031 96.6466 83.5515C96.8418 83.8706 97.249 84.065 97.6228 83.9428C98.6625 83.6015 99.7118 83.3197 100.71 82.8205C101.93 82.2102 102.987 81.3831 104.112 80.6466C104.429 80.4394 104.727 80.2124 104.794 79.791C104.826 79.5854 105.009 79.5188 105.183 79.4275C105.322 79.3545 105.404 79.1719 105.557 78.9798C105.317 78.964 105.174 78.9544 104.999 78.9425C104.878 78.4671 105.068 78.0869 105.391 77.7711C105.484 77.6798 105.69 77.6298 105.818 77.6615C106.114 77.7369 106.395 77.8742 106.715 77.9988C107.188 77.6425 107.491 77.1321 107.78 76.6139C107.799 76.5781 107.764 76.4885 107.726 76.4496C107.689 76.4107 107.598 76.3702 107.565 76.3892C107.351 76.5115 107.126 76.6273 106.945 76.7901C106.699 77.0107 106.45 77.1686 106.053 77.0821C106.053 76.9456 105.995 76.7647 106.062 76.6662C106.484 76.0376 106.949 75.4455 107.746 75.2622C107.898 75.2273 108.053 75.1892 108.207 75.182C108.726 75.1566 108.996 75.417 108.904 75.9265C108.838 76.2892 108.7 76.6504 108.534 76.9813C108.122 77.8004 107.554 78.5116 106.909 79.1608C106.732 79.3386 106.545 79.5108 106.392 79.7084C106.143 80.0307 106.195 80.3704 106.515 80.6117C106.957 80.9442 107.427 81.0791 108.007 81.0236C109.423 80.8887 110.671 80.3156 111.873 79.6338C113.211 78.8759 114.514 78.0584 115.828 77.2607C116.462 76.8758 116.905 76.2956 117.277 75.6821C117.878 74.6907 118.417 73.6613 118.983 72.6486C119.732 71.3065 120.484 69.9659 121.229 68.6214C121.488 68.1547 121.734 67.6817 121.975 67.2055C122.145 66.8697 122.345 66.565 122.577 66.2634C122.955 65.7713 123.24 65.2046 123.534 64.653C123.684 64.3736 123.842 64.122 124.111 63.9132C124.312 64.3133 123.996 64.6045 124.007 64.9681C124.369 65.1443 124.453 64.5958 124.832 64.6728C124.657 64.98 124.524 65.299 124.317 65.557C123.624 66.4221 123.184 67.4348 122.628 68.3801C121.833 69.7326 121.076 71.1072 120.295 72.4684C120.171 72.6851 120.01 72.8819 119.866 73.0867C119.687 73.3415 119.545 73.6121 119.504 73.8994C119.642 74.0788 119.76 74.0058 119.843 73.9169C120.079 73.6661 120.314 73.4121 120.527 73.1431C121.735 71.62 122.953 70.1112 123.942 68.4206C124.925 66.7388 125.896 65.0577 126.66 63.2632C126.746 63.0608 126.836 62.8592 126.908 62.6521C127.023 62.3227 127.045 61.9917 126.912 61.6703C126.584 61.6314 126.479 61.8489 126.416 62.0513C126.276 62.5052 126.003 62.7957 125.561 62.9846C125.357 63.0719 125.217 63.3077 125.054 63.4688C124.795 63.4608 124.674 63.2894 124.733 63.0981C124.813 62.8362 124.926 62.537 125.123 62.3687C125.44 62.0973 125.569 61.7901 125.603 61.3965C125.615 61.252 125.712 61.1155 125.774 60.9671C126.237 60.9075 126.669 60.8512 127.102 60.7956C127.65 60.725 128.016 60.9893 128.077 61.5322C128.124 61.9401 128.105 62.3489 127.927 62.733C127.493 63.6704 127.107 64.6339 126.613 65.5387C125.892 66.8594 125.126 68.1587 124.317 69.4278C123.73 70.3477 123.192 71.3049 122.442 72.1176C122.146 72.439 121.914 72.82 121.655 73.1748C121.321 73.6312 120.963 74.0471 120.498 74.3963C120.053 74.7296 119.721 75.2082 119.317 75.6003C119.048 75.8606 118.751 76.0932 118.448 76.3138C117.922 76.6956 117.617 77.2583 117.315 77.7917C115.954 80.1942 114.568 82.5872 113.325 85.0508C112.197 87.2874 111.025 89.5073 110.07 91.8313C109.534 93.1361 108.896 94.3988 108.33 95.6926C107.902 96.6704 107.49 97.6569 107.12 98.6578C106.697 99.8023 106.338 100.97 105.934 102.121C105.541 103.245 105.112 104.356 104.725 105.481C104.47 106.221 104.268 106.979 104.029 107.723C103.682 108.797 103.308 109.863 102.971 110.94C102.652 111.957 102.371 112.985 102.064 114.005C101.875 114.636 101.675 115.264 101.463 115.888C100.848 117.699 100.303 119.533 99.7491 121.364C99.3308 122.745 98.8284 124.1 98.3824 125.473C97.8784 127.024 97.4061 128.585 96.899 130.135C96.5275 131.268 96.1196 132.389 95.7307 133.517C95.1378 135.237 94.5481 136.956 93.9568 138.676C93.9163 138.795 93.8798 138.917 93.825 139.03C93.0607 140.582 92.6924 142.283 92.0098 143.866C91.8487 144.24 91.6916 144.616 91.5479 144.997C91.3939 145.407 91.2622 145.824 91.1154 146.236C91.0519 146.413 90.9828 146.589 90.9042 146.76C90.2121 148.271 89.5224 149.782 88.8216 151.29C88.624 151.714 88.412 152.134 88.1716 152.535C87.4961 153.662 86.9239 154.855 86.0619 155.865C86.0008 155.936 85.9286 156.005 85.8905 156.088C85.2365 157.515 84.0444 158.537 83.1229 159.762C82.8451 160.132 82.4514 160.422 82.0879 160.72C81.145 161.494 80.218 162.291 79.1338 162.874C77.6861 163.653 76.1781 164.239 74.5233 164.387C74.055 164.429 73.5891 164.527 73.1216 164.529C72.6549 164.532 72.1867 164.455 71.7208 164.399C71.4406 164.365 71.1652 164.282 70.885 164.258C69.8461 164.166 68.8524 163.927 67.9158 163.451C67.1912 163.082 66.4237 162.8 65.7808 162.278C65.2427 161.842 64.7149 161.404 64.3426 160.804C63.9966 160.246 63.572 159.745 63.2346 159.174C62.3116 157.612 61.7766 155.921 61.3615 154.172C60.9306 152.357 60.7655 150.517 60.8099 148.661C60.8464 147.119 61.0734 145.585 61.4949 144.107C61.76 143.177 62.0036 142.233 62.333 141.325C62.9322 139.674 63.6315 138.063 64.6236 136.596C64.8331 136.287 64.9665 135.926 65.176 135.617C65.9665 134.449 66.7451 133.272 67.5833 132.14C68.5158 130.88 69.4849 129.647 70.4834 128.439C71.2223 127.544 72.0327 126.71 72.8105 125.848C73.3359 125.266 73.8582 124.68 74.386 124.1C75.1249 123.288 75.8527 122.466 76.6147 121.677C77.0932 121.181 77.6409 120.753 78.1298 120.267C78.8203 119.58 79.4815 118.864 80.1609 118.167C80.4894 117.83 80.8299 117.504 81.1728 117.181C81.2561 117.1 81.372 117.056 81.58 116.933ZM87.0604 82.5467C87.2588 82.3967 87.3398 82.3562 87.3937 82.2919C88.8311 80.5807 89.9248 78.6449 91.0066 76.7043C91.105 76.5273 91.109 76.2837 91.1138 76.0702C91.1185 75.8265 90.8272 75.6765 90.6439 75.8273C90.3296 76.0853 90.0264 76.3583 89.7335 76.6408C89.4304 76.9329 88.9002 76.9655 88.7875 77.4925C88.7676 77.5853 88.5359 77.6409 88.3946 77.6972C87.8382 77.9203 87.6509 78.1774 87.7573 78.7655C87.8231 79.1298 87.7438 79.4315 87.6326 79.7648C87.416 80.4164 87.235 81.0815 87.0683 81.749C87.0175 81.9514 87.0604 82.1784 87.0604 82.5467ZM96.6307 81.2847C96.7918 81.2188 96.9164 81.2006 96.995 81.1299C98.0593 80.172 98.8189 78.983 99.5261 77.7552C99.8761 77.1472 100.033 76.475 100.162 75.7964C100.22 75.4908 100.065 75.1455 99.8951 75.1678C99.7293 75.1892 99.5689 75.3082 99.4229 75.409C99.3221 75.4781 99.2372 75.5805 99.1657 75.6821C98.6737 76.3845 98.0681 76.9488 97.276 77.3044C97.1728 77.3504 97.0982 77.475 97.0275 77.575C96.9418 77.6949 97.0426 77.8726 97.2117 77.9084C97.3212 77.9314 97.4657 77.829 97.5514 78.0512C97.1593 79.0489 96.6037 80.0458 96.6307 81.2847Z" fill="#FBD784"/>
<path d="M71.7771 75.4702C71.9795 75.4702 72.1049 75.4979 72.2128 75.4654C73.2034 75.1678 74.1899 74.8582 75.1781 74.5542C75.6566 74.4074 76.1345 74.2431 76.6535 74.3526C76.6742 74.5606 76.5059 74.6034 76.3741 74.6479C75.0082 75.1138 73.6399 75.5741 72.2708 76.0329C72.1224 76.0829 71.9676 76.1154 71.8176 76.163C71.5517 76.248 71.4001 76.44 71.3628 76.7099C71.3064 77.1139 71.2604 77.5195 71.2183 77.925C71.1525 78.5552 70.9763 79.1433 70.7009 79.7212C70.2556 80.6545 69.8889 81.6252 69.4667 82.5697C69.1976 83.1705 68.8801 83.7491 68.5984 84.3444C67.888 85.8453 67.1531 87.3358 66.4927 88.8581C66.1356 89.6819 65.5562 90.324 65.0601 91.0296C64.8014 90.9336 64.8998 90.7598 64.9212 90.6256C64.968 90.332 65.2895 90.124 65.1673 89.7066C65.0506 89.8526 64.9371 89.9518 64.8776 90.0772C64.5815 90.6979 64.0656 91.2003 63.9077 91.8948C63.895 91.9527 63.8497 92.0059 63.8116 92.0543C62.4203 93.7917 61.2274 95.6894 59.6249 97.2553C59.3328 97.5403 59.0424 97.8308 58.7241 98.0847C57.1526 99.3364 55.5374 100.525 53.8135 101.565C52.4151 102.41 50.9856 103.193 49.5102 103.891C48.9728 104.146 48.422 104.377 47.8609 104.573C46.4425 105.069 45.0218 105.563 43.5884 106.012C42.5122 106.349 41.4201 106.642 40.324 106.908C39.1358 107.196 37.9382 107.446 36.7389 107.683C36.0936 107.81 35.4388 107.907 34.7833 107.961C33.4078 108.076 32.0307 108.19 30.6521 108.241C28.7695 108.311 26.8845 108.331 25.0002 108.351C24.6296 108.355 24.2589 108.25 23.8859 108.218C23.543 108.188 23.197 108.169 22.8541 108.18C22.189 108.2 21.554 108.136 20.9175 107.89C20.308 107.654 19.6492 107.546 19.0119 107.383C17.5491 107.009 16.149 106.468 14.7577 105.883C13.3878 105.306 12.1441 104.531 10.9273 103.702C10.0725 103.119 9.19234 102.566 8.39547 101.911C7.45336 101.137 6.48427 100.384 5.74217 99.388C5.14214 98.5832 4.47941 97.8268 3.85478 97.0402C3.06744 96.0497 2.48566 94.9362 1.98008 93.7853C1.47609 92.6376 1.06099 91.467 0.821298 90.2177C0.53557 88.7263 0.625257 87.2739 0.979242 85.8349C1.27846 84.619 1.68801 83.4237 2.28645 82.3181C2.89838 81.1863 3.60318 80.1053 4.23734 78.9854C4.81355 77.9687 5.57311 77.0996 6.31204 76.2051C7.39304 74.8955 8.49151 73.6042 9.72649 72.4391C10.4551 71.7517 11.2607 71.1453 11.9901 70.4588C13.0759 69.4373 14.3743 68.7254 15.6077 67.9238C17.5618 66.6531 19.6833 65.7173 21.8858 64.9554C22.8033 64.6379 23.6994 64.2577 24.6566 64.0633C25.9511 63.7997 27.2559 63.5561 28.5758 63.5672C30.3703 63.5831 32.1403 63.7926 33.7999 64.5823C34.6634 64.9935 35.4785 65.5038 36.1127 66.1808C36.9627 67.088 37.7493 68.069 38.1048 69.331C38.7533 71.6303 38.9922 73.9463 38.589 76.3123C38.4366 77.2091 38.3485 78.1274 38.085 78.9918C37.6469 80.4283 37.1588 81.8514 36.5643 83.2372C36.0039 84.5428 35.2579 85.723 34.3856 86.8382C33.807 87.5779 33.276 88.3573 32.7514 89.1375C32.0514 90.1788 31.0831 90.9145 30.0529 91.5844C29.8798 91.6971 29.6957 91.863 29.4528 91.7281C29.3441 91.5328 29.5013 91.4416 29.6108 91.3487C30.1132 90.9241 30.6378 90.5233 31.1243 90.0812C31.495 89.7447 31.8395 89.3748 32.1617 88.9914C32.9292 88.0795 33.6578 87.1342 34.4443 86.2397C34.6999 85.9492 34.9063 85.6492 35.0563 85.3055C35.5841 84.0991 36.1452 82.9046 36.6072 81.6728C36.8802 80.945 37 80.1585 37.1715 79.3949C37.3715 78.5076 37.5437 77.6147 37.7445 76.7281C37.9413 75.8599 37.9239 74.9812 37.9001 74.1018C37.8842 73.505 37.854 72.9089 37.831 72.3129C37.8175 71.9636 37.2723 69.6413 37.0834 69.3159C36.5802 68.4508 36.1214 67.5658 35.3753 66.8531C34.1039 65.6395 32.6093 64.9363 30.8934 64.6355C28.552 64.2244 26.2622 64.5006 24.0153 65.1689C22.693 65.5625 21.3644 65.98 20.1119 66.5483C18.4055 67.3229 16.6419 68.0087 15.1252 69.1587C14.7783 69.4222 14.3775 69.6127 14.0164 69.8588C11.1869 71.789 8.88121 74.2653 6.71365 76.8845C5.77233 78.0219 4.97547 79.2608 4.19844 80.5117C4.00161 80.8283 3.87621 81.1887 3.7135 81.5395C3.84128 81.7411 3.95716 81.9236 4.07939 82.1165C3.927 82.8546 3.24205 83.265 2.96823 83.942C2.76107 83.942 2.58011 83.942 2.42296 83.942C2.35312 84.0071 2.28645 84.0404 2.26581 84.092C1.99516 84.7627 1.76817 85.4413 1.78246 86.1834C1.78801 86.4604 1.7523 86.7636 1.64118 87.0128C1.21894 87.9581 1.40942 88.9216 1.51657 89.8796C1.56816 90.3455 1.65467 90.8161 1.79674 91.2614C2.04517 92.036 2.33724 92.798 2.63408 93.5559C2.81663 94.021 2.99124 94.4949 3.33332 94.8814C3.43492 94.9957 3.50555 95.1465 3.56111 95.2909C3.96351 96.337 4.69133 97.1577 5.38501 98.0101C6.543 99.4324 7.90815 100.635 9.31456 101.791C10.3789 102.667 11.4869 103.492 12.7441 104.091C13.0544 104.239 13.333 104.453 13.6362 104.618C14.8807 105.292 16.1601 105.881 17.534 106.252C18.0483 106.391 18.5468 106.588 19.0603 106.73C20.0881 107.015 21.1135 107.318 22.1565 107.536C22.8573 107.682 23.5843 107.726 24.3018 107.761C26.436 107.865 28.5758 107.883 30.7061 107.757C32.426 107.656 34.1523 107.53 35.8476 107.162C37.5953 106.782 39.3557 106.457 41.0955 106.046C42.0376 105.823 42.9503 105.474 43.875 105.176C44.3821 105.012 44.8869 104.841 45.3909 104.665C46.4854 104.283 47.6132 103.975 48.6625 103.493C50.057 102.852 51.3999 102.094 52.7444 101.348C53.5373 100.909 54.2969 100.408 55.0604 99.9182C56.4652 99.0181 57.7844 98.0109 58.9265 96.7847C59.3114 96.372 59.7345 95.9926 60.0956 95.5608C61.0432 94.4306 61.9941 93.3012 62.8886 92.1289C63.3418 91.5344 63.6902 90.8574 64.0616 90.2034C64.9442 88.6478 65.8276 87.0929 66.6768 85.5198C67.0483 84.8317 67.3507 84.1047 67.6602 83.3848C68.5277 81.3689 69.3841 79.3473 70.2397 77.3266C70.2969 77.1917 70.3104 77.0385 70.3604 76.8226C70.1469 76.8226 69.9881 76.7861 69.8532 76.8282C68.5071 77.2464 67.1562 77.6536 65.8252 78.1187C65.4181 78.2608 65.0315 78.4711 64.6133 78.61C63.7227 78.9052 62.8497 79.2545 61.9647 79.5688C61.5814 79.7053 61.1782 79.7878 60.798 79.9331C59.6852 80.3577 58.5828 80.8085 57.4701 81.2339C56.8542 81.4697 56.2271 81.6752 55.6041 81.8927C54.3897 82.3157 53.1603 82.6991 51.965 83.1697C50.3531 83.8039 48.6792 84.219 47.0211 84.6928C46.329 84.8905 45.633 85.0817 44.9583 85.3286C43.9583 85.6945 42.9122 85.6056 41.8852 85.7103C41.0939 85.7905 40.3097 85.7413 39.5684 85.45C39.0176 85.2333 38.4358 85.0206 37.9755 84.6658C37.4151 84.2349 37.0984 83.5999 37.2223 82.8435C37.35 82.0641 37.5905 81.3244 38.0159 80.6458C38.6382 79.6529 39.3803 78.7624 40.2494 77.983C41.3939 76.9567 42.5011 75.8853 43.8067 75.0503C45.2623 74.1185 46.7537 73.2581 48.3569 72.6033C49.2276 72.2478 50.0824 71.8509 50.9642 71.5279C52.3174 71.0326 53.6881 70.585 55.0517 70.1175C55.8192 70.1318 56.4962 69.7469 57.2193 69.6143C58.2622 69.423 59.3392 69.3921 60.4043 69.3492C61.2504 69.3159 62.1004 69.3873 62.9481 69.3778C64.5593 69.3611 66.0443 69.854 67.465 70.535C68.1682 70.8723 68.8095 71.3477 69.2984 71.9859C69.4317 72.1605 69.5572 72.3454 69.7151 72.4954C70.2754 73.028 70.658 73.6629 70.8882 74.3971C70.9231 74.509 71.0009 74.6074 71.1001 74.786C71.2461 74.586 71.3866 74.4574 71.4485 74.2971C71.8096 73.3621 72.1422 72.416 72.5049 71.4819C72.9367 70.3707 73.4034 69.273 73.828 68.1587C74.174 67.2515 74.4614 66.3213 74.8098 65.4149C75.5741 63.4243 76.3559 61.4409 77.1401 59.4583C77.6591 58.1455 78.1838 56.8351 78.7251 55.5311C79.3267 54.0834 79.9537 52.6468 80.5616 51.2023C80.8886 50.4253 81.1831 49.6348 81.518 48.8617C82.1911 47.3077 82.8665 45.7536 83.5721 44.2147C83.8324 43.6472 84.1483 43.0972 84.5007 42.5813C84.8428 42.0804 85.0841 41.5447 85.2746 40.9788C85.5032 40.2994 85.927 39.8526 86.6707 39.7565C86.981 39.716 87.285 39.6168 87.5953 39.5883C87.9676 39.5533 88.2827 39.6883 88.4342 40.0573C88.4755 40.1581 88.4406 40.2899 88.4406 40.5058C88.2374 40.4121 88.1057 40.3637 87.9874 40.2931C87.3771 39.9303 87.1183 39.92 86.8358 40.5002C86.4699 41.2502 85.8905 41.8201 85.4174 42.4773C84.7158 43.4527 84.2428 44.5504 83.7293 45.6251C83.0943 46.9553 82.5864 48.3363 82.0784 49.7197C81.7879 50.511 81.3768 51.2571 81.0315 52.0293C80.8021 52.5437 80.5982 53.0691 80.3759 53.5874C80.0418 54.3652 79.6989 55.1398 79.3679 55.9192C79.2822 56.12 79.2195 56.3311 79.1552 56.5399C79.1092 56.6891 79.1068 56.8574 79.037 56.9923C78.2695 58.467 77.7798 60.0567 77.1289 61.5798C76.8583 62.2132 76.6607 62.8783 76.4083 63.5204C75.7416 65.2133 75.0487 66.8959 74.3931 68.5928C73.897 69.8778 73.4526 71.1834 72.9652 72.4724C72.6017 73.4359 72.2081 74.386 71.7771 75.4702ZM60.9202 70.1834C60.6607 70.1834 60.4154 70.1604 60.1757 70.1874C58.3661 70.389 56.5708 70.6421 54.8009 71.1096C52.9143 71.6089 51.084 72.2414 49.3173 73.0589C48.2379 73.5582 47.1545 74.055 46.114 74.628C44.9345 75.2781 43.7638 75.9559 42.8003 76.929C42.359 77.3742 41.9034 77.8115 41.4137 78.2012C40.2367 79.137 39.4184 80.3529 38.658 81.6197C38.5771 81.7538 38.4961 81.8911 38.439 82.0363C38.1263 82.8316 38.4017 83.5475 39.1604 83.9245C39.2446 83.9666 39.3366 83.9912 39.4224 84.0293C40.3296 84.4238 41.2701 84.5944 42.263 84.519C42.5987 84.4936 42.9567 84.5428 43.2813 84.6365C43.7249 84.7642 44.1313 84.7174 44.5726 84.6174C45.3449 84.442 46.052 84.1047 46.7902 83.8452C48.3863 83.284 49.9975 82.7642 51.5976 82.2157C53.2881 81.6363 54.9739 81.0426 56.6629 80.4569C58.5296 79.81 60.3892 79.1394 62.2671 78.5266C64.2037 77.8941 66.1594 77.3171 68.1071 76.7186C68.7365 76.525 69.3698 76.3448 69.9992 76.1527C70.3754 76.0376 70.5508 75.7884 70.4389 75.4519C70.0913 74.4074 69.6714 73.4089 68.8682 72.6026C68.1031 71.8343 67.2023 71.2747 66.2792 70.7382C66.1205 70.6461 65.93 70.5779 65.7482 70.5596C65.3696 70.5215 65.018 70.412 64.6593 70.2929C64.3394 70.1866 63.9815 70.1635 63.6402 70.158C63.0005 70.1469 62.3568 70.062 61.6703 70.1532C62.0631 70.5739 62.6647 70.4239 63.0545 70.8453C62.4227 71.2803 61.802 70.9549 61.1718 70.9636C61.1131 71.0525 61.0551 71.162 60.9758 71.2533C60.7964 71.4573 60.7837 71.4517 60.4543 71.1684C60.6234 70.8969 61.0234 70.7437 60.9202 70.1834Z" fill="#FBD784"/>
<path d="M64.0736 92.2273C64.3283 92.3146 64.5863 92.4035 64.8681 92.4995C64.9212 93.5043 64.4498 94.2599 63.8355 95.002C64.1879 95.2965 64.5347 95.2147 64.8141 95.0504C65.7586 94.4957 66.6888 93.9321 67.3967 93.0472C68.2396 91.9932 69.0548 90.9248 69.8246 89.8153C70.3445 89.0668 70.8612 88.3247 71.3049 87.5263C71.6073 86.9826 72.0287 86.5072 72.3541 85.9746C73.2859 84.4499 74.1661 82.8951 74.9416 81.2839C75.7019 79.7021 76.4654 78.1211 77.2155 76.5337C78.637 73.5256 79.8846 70.4429 81.1728 67.3769C82.376 64.5117 83.6483 61.6758 84.8523 58.8114C85.5937 57.0478 86.2627 55.2533 86.9699 53.4746C87.4795 52.192 87.9834 50.907 88.5144 49.634C89.1668 48.0712 89.8431 46.5187 90.5129 44.9631C90.8971 44.0702 91.286 43.1789 91.6781 42.2892C92.7654 39.82 93.8337 37.3421 95.0766 34.9444C95.5386 34.0523 95.9537 33.1356 96.4362 32.2554C97.1148 31.018 97.8331 29.8021 98.5427 28.5814C98.9213 27.9297 99.3261 27.294 99.7007 26.6408C99.9515 26.2035 100.271 25.8193 100.562 25.4138C101.072 24.7034 101.51 23.9359 101.917 23.1597C102.221 22.5819 102.609 22.0406 102.732 21.3675C102.772 21.1461 103.018 20.9659 103.151 20.7548C103.194 20.6857 103.216 20.5405 103.175 20.4968C103.102 20.4183 102.977 20.3532 102.871 20.35C102.717 20.3445 102.56 20.3889 102.409 20.4302C100.732 20.8834 99.1134 21.4882 97.7149 22.535C96.7632 23.2478 95.8584 24.024 95.0409 24.905C94.1671 25.8471 93.2464 26.7535 92.2813 27.6012C91.2153 28.5377 90.2598 29.5751 89.3002 30.6108C88.9192 31.022 88.4835 31.3886 88.2271 31.9117C88.1533 32.0617 87.9668 32.1561 87.8453 32.2633C87.6414 32.1426 87.7009 32.018 87.758 31.9157C88.4065 30.7616 89.1732 29.6981 90.147 28.7909C90.374 28.579 90.5637 28.3266 90.7836 28.1075C92.0479 26.8479 93.3909 25.6661 94.6195 24.3724C95.487 23.4589 96.4466 22.6597 97.4188 21.8675C98.4824 21.0008 99.715 20.4603 100.979 19.9881C101.621 19.7484 102.302 19.6055 102.971 19.4484C103.242 19.3849 103.533 19.3698 103.812 19.3865C104.188 19.4087 104.441 19.7238 104.385 20.1048C104.349 20.3468 104.261 20.5921 104.148 20.8104C103.264 22.5081 102.394 24.22 101.3 25.7908C100.617 26.7718 100.021 27.8035 99.4157 28.8242C98.3292 30.6592 97.3482 32.5577 96.3719 34.4555C95.5981 35.9595 94.8727 37.4897 94.1687 39.0287C93.2813 40.9701 92.4368 42.9305 91.5765 44.8837C91.0582 46.06 90.5304 47.2331 90.0312 48.418C89.5684 49.5165 89.1414 50.6308 88.6938 51.7357C88.1279 53.1318 87.5533 54.5247 86.9905 55.9224C86.7683 56.4748 86.581 57.0407 86.3564 57.5915C85.8706 58.7828 85.3754 59.9694 84.877 61.1552C84.0261 63.1791 83.1697 65.1998 82.3157 67.2229C81.1815 69.9119 80.1347 72.6383 78.8822 75.2765C78.4251 76.2392 77.9917 77.2139 77.5369 78.1766C76.6948 79.96 75.8464 81.7435 74.8463 83.4483C74.5296 83.988 74.2669 84.5603 73.9836 85.1198C73.2597 86.5516 72.3144 87.8477 71.4803 89.2121C71.0874 89.8549 70.7263 90.5137 70.2524 91.105C69.5072 92.0344 68.8278 93.0226 68.0245 93.898C67.3936 94.5861 66.6483 95.1862 65.7903 95.5997C65.2506 95.86 64.6776 96.0291 64.0648 95.9243C63.7759 95.8751 63.5386 95.7576 63.4164 95.4505C63.3378 95.2536 63.218 95.0608 63.0735 94.9068C62.8267 94.6441 62.7719 94.3345 62.883 94.0329C63.1338 93.3583 63.4196 92.694 64.0736 92.2273Z" fill="#FBD784"/>
<path d="M80.6625 85.9532C80.5974 85.8619 80.5093 85.7913 80.5196 85.7405C80.5331 85.6714 80.6228 85.6182 80.6799 85.5579C80.7355 85.6135 80.8379 85.6722 80.8347 85.7246C80.8307 85.7921 80.7418 85.854 80.6625 85.9532Z" fill="#FBD784"/>
<path d="M82.1073 116.514C82.0826 116.504 82.0571 116.492 82.0323 116.482C82.0475 116.457 82.0571 116.42 82.0786 116.412C82.0978 116.405 82.1289 116.429 82.1552 116.44C82.1392 116.464 82.1233 116.489 82.1073 116.514Z" fill="#FBD784"/>
<path d="M129.765 76.875C129.499 76.8075 129.472 76.6639 129.505 76.4988C129.584 76.1035 129.666 75.7098 129.753 75.3162C129.902 74.6384 129.81 73.9598 129.72 73.2478C130.04 73.0819 130.266 72.7248 130.698 72.9732C130.432 73.5669 130.435 73.5661 130.542 74.2225C130.638 74.8193 130.631 75.3939 130.266 75.9273C130.062 76.2249 129.924 76.567 129.765 76.875Z" fill="#FBD784"/>
<path d="M116.875 89.474C116.678 89.451 116.521 89.1668 116.538 88.87C116.548 88.7089 116.702 88.5787 116.856 88.6017C117.161 88.6477 117.369 88.8549 117.332 89.0755C117.298 89.2795 117.052 89.4946 116.875 89.474Z" fill="#FBD784"/>
<path d="M117.342 85.3516C117.308 85.3159 117.239 85.277 117.232 85.2294C117.194 84.9468 117.367 84.7016 117.674 84.6015C117.721 84.5865 117.8 84.6119 117.837 84.6468C117.876 84.6833 117.909 84.7611 117.898 84.8111C117.844 85.0714 117.695 85.2627 117.444 85.3635C117.421 85.3738 117.385 85.3571 117.342 85.3516Z" fill="#FBD784"/>
<path d="M120.314 80.9347C120.229 80.8315 120.135 80.7672 120.141 80.7148C120.149 80.6498 120.24 80.5942 120.294 80.5339C120.336 80.5736 120.414 80.6156 120.413 80.6537C120.41 80.7315 120.364 80.8061 120.314 80.9347Z" fill="#FBD784"/>
<path d="M117.073 87.1242L117.053 87.0667L117.107 87.0756L117.073 87.1242Z" fill="#FBD784"/>
<path d="M39.0413 82.1475L39.0575 82.2074L39.0073 82.1985L39.0413 82.1475Z" fill="#FBD784"/>
</svg>
